<svg width="193" height="48" viewBox="0 0 193 48" fill="none" xmlns="http://www.w3.org/2000/svg">
<path d="M39.056 47.724C37.392 47.724 35.824 47.26 34.352 46.332C32.88 45.404 31.52 44.188 30.272 42.684C29.056 41.212 27.952 39.596 26.96 37.836C26 36.076 25.152 34.348 24.416 32.652C23.712 30.956 23.136 29.468 22.688 28.188L22.64 28.044C22.192 29.516 21.744 30.86 21.296 32.076C20.848 33.26 20.464 34.22 20.144 34.956C19.344 36.844 18.304 38.572 17.024 40.14C15.776 41.708 14.416 42.94 12.944 43.836C11.472 44.764 10 45.228 8.528 45.228C7.088 45.228 5.712 44.684 4.4 43.596C3.12 42.54 2.016 40.78 1.088 38.316C0.832 37.612 0.656 36.892 0.56 36.156C0.432 35.42 0.368 34.668 0.368 33.9C0.368 32.524 0.528 31.164 0.848 29.82C1.136 28.476 1.536 27.26 2.048 26.172C2.4 25.34 2.896 24.46 3.536 23.532C4.208 22.604 4.848 21.852 5.456 21.276C5.616 21.116 5.84 20.94 6.128 20.748C6.448 20.556 6.656 20.46 6.752 20.46C6.784 20.46 6.8 20.476 6.8 20.508C6.8 20.604 6.528 20.94 5.984 21.516C4.576 22.956 3.552 24.684 2.912 26.7C2.272 28.716 1.952 30.748 1.952 32.796C1.952 35.1 2.288 37.164 2.96 38.988C3.696 41.036 4.544 42.476 5.504 43.308C6.464 44.14 7.488 44.556 8.576 44.556C9.6 44.556 10.624 44.236 11.648 43.596C12.672 42.988 13.632 42.188 14.528 41.196C15.264 40.396 16.016 39.26 16.784 37.788C17.584 36.348 18.352 34.7 19.088 32.844C19.856 30.988 20.544 29.036 21.152 26.988C21.92 24.524 22.528 22.044 22.976 19.548C23.456 17.02 23.696 14.732 23.696 12.684C23.696 11.276 23.568 10.028 23.312 8.94C23.056 7.852 22.656 6.972 22.112 6.3C21.792 5.948 21.44 5.772 21.056 5.772C20.672 5.772 20.288 5.932 19.904 6.252C19.328 6.668 18.8 7.324 18.32 8.22C17.872 9.116 17.472 10.124 17.12 11.244C16.768 12.364 16.496 13.516 16.304 14.7C16.112 15.884 16.016 16.988 16.016 18.012C16.016 18.748 16.08 19.42 16.208 20.028C16.336 20.636 16.512 21.116 16.736 21.468C17.024 21.884 17.328 22.092 17.648 22.092C17.776 22.092 17.888 22.076 17.984 22.044C18.112 22.012 18.208 21.996 18.272 21.996C18.432 21.996 18.512 22.044 18.512 22.14C18.512 22.236 18.384 22.332 18.128 22.428C17.904 22.524 17.616 22.572 17.264 22.572C17.008 22.572 16.752 22.524 16.496 22.428C15.792 22.14 15.28 21.596 14.96 20.796C14.672 19.964 14.528 19.004 14.528 17.916C14.528 16.636 14.704 15.276 15.056 13.836C15.44 12.396 15.952 11.036 16.592 9.756C17.232 8.476 17.952 7.436 18.752 6.636C19.552 5.804 20.384 5.388 21.248 5.388C21.856 5.388 22.464 5.644 23.072 6.156C23.904 6.86 24.496 7.852 24.848 9.132C25.2 10.38 25.376 11.788 25.376 13.356C25.376 15.212 25.168 17.228 24.752 19.404C24.368 21.548 23.904 23.612 23.36 25.596C24.64 23.26 26.176 21.148 27.968 19.26C29.792 17.34 31.792 15.82 33.968 14.7C36.176 13.548 38.48 12.972 40.88 12.972C41.52 12.972 42.176 13.02 42.848 13.116C43.552 13.212 44.24 13.372 44.912 13.596C45.232 13.692 45.392 13.932 45.392 14.316C45.392 14.604 45.296 14.86 45.104 15.084C44.944 15.308 44.72 15.372 44.432 15.276C43.344 14.956 42.208 14.796 41.024 14.796C39.264 14.796 37.52 15.148 35.792 15.852C34.064 16.524 32.416 17.452 30.848 18.636C29.28 19.788 27.84 21.116 26.528 22.62C25.248 24.092 24.176 25.644 23.312 27.276L23.264 27.42L23.456 27.852C23.872 28.78 24.448 29.852 25.184 31.068C25.92 32.252 26.752 33.5 27.68 34.812C28.64 36.124 29.616 37.388 30.608 38.604C31.6 39.852 32.576 40.972 33.536 41.964C34.496 42.956 35.36 43.724 36.128 44.268C36.704 44.684 37.376 45.1 38.144 45.516C38.944 45.964 39.728 46.188 40.496 46.188C41.552 46.188 42.256 45.756 42.608 44.892C42.992 44.028 43.184 43.148 43.184 42.252C43.184 41.228 43.024 40.22 42.704 39.228C42.384 38.236 41.936 37.324 41.36 36.492C41.264 36.332 41.216 36.236 41.216 36.204C41.216 36.108 41.264 36.06 41.36 36.06C41.52 36.06 41.712 36.172 41.936 36.396C42.576 37.164 43.088 38.06 43.472 39.084C43.856 40.108 44.048 41.132 44.048 42.156C44.048 43.724 43.6 45.036 42.704 46.092C41.808 47.18 40.592 47.724 39.056 47.724ZM38.3818 21.468C38.0938 21.468 37.8858 21.324 37.7578 21.036C37.6618 20.716 37.6138 20.492 37.6138 20.364C37.6138 19.852 37.7578 19.372 38.0458 18.924C38.3658 18.444 38.7178 18.188 39.1018 18.156H39.2458C39.6298 18.156 39.8858 18.252 40.0138 18.444C40.1738 18.604 40.2538 18.812 40.2538 19.068C40.2538 19.548 40.0458 20.076 39.6298 20.652C39.2138 21.196 38.7978 21.468 38.3818 21.468ZM35.9338 38.652C34.8458 38.652 34.1098 38.236 33.7258 37.404C33.3418 36.572 33.1498 35.612 33.1498 34.524C33.1498 33.436 33.2618 32.3 33.4858 31.116C33.7418 29.9 34.0138 28.796 34.3018 27.804C34.6218 26.812 34.8618 26.108 35.0218 25.692C35.3738 24.956 35.7258 24.332 36.0778 23.82C36.4298 23.276 36.8138 23.004 37.2298 23.004C37.5178 23.004 37.7258 23.116 37.8538 23.34C38.0138 23.532 38.0938 23.788 38.0938 24.108C38.0938 24.748 37.9178 25.404 37.5658 26.076C37.2138 26.716 36.8938 27.324 36.6058 27.9C35.9658 29.212 35.4538 30.38 35.0698 31.404C34.7178 32.428 34.5418 33.708 34.5418 35.244C34.5418 36.236 34.6378 36.956 34.8298 37.404C35.0538 37.852 35.3578 38.076 35.7418 38.076C36.2538 38.076 36.8458 37.788 37.5178 37.212C38.1898 36.604 38.8778 35.804 39.5818 34.812C40.2858 33.82 40.9098 32.748 41.4538 31.596C41.8058 30.86 42.0778 30.492 42.2698 30.492C42.3978 30.492 42.4618 30.62 42.4618 30.876C42.4618 31.228 42.3178 31.74 42.0298 32.412C41.7738 33.052 41.4538 33.708 41.0698 34.38C40.7178 35.052 40.3818 35.58 40.0618 35.964C39.5178 36.668 38.8938 37.292 38.1898 37.836C37.4858 38.38 36.7338 38.652 35.9338 38.652ZM45.3928 45.18C45.0728 45.18 44.7368 44.972 44.3848 44.556C44.0648 44.172 43.7608 43.628 43.4728 42.924C42.9928 41.772 42.6568 40.556 42.4648 39.276C42.2728 38.028 42.1768 36.764 42.1768 35.484C42.1768 34.076 42.2728 32.7 42.4648 31.356C42.6568 30.012 42.8648 28.796 43.0888 27.708C43.2488 26.94 43.4408 26.124 43.6648 25.26C43.8888 24.396 44.0968 23.708 44.2888 23.196C44.0968 23.228 43.7928 23.34 43.3768 23.532C42.9608 23.724 42.5288 23.916 42.0808 24.108C41.6648 24.3 41.2968 24.396 40.9768 24.396C40.4968 24.396 40.2568 24.124 40.2568 23.58C40.2568 23.292 40.3528 23.036 40.5448 22.812C40.7688 22.588 41.0408 22.412 41.3608 22.284C42.0008 21.996 42.7048 21.788 43.4728 21.66C44.2408 21.5 44.7528 21.34 45.0088 21.18L46.2568 18.012C46.3848 17.692 46.6088 17.18 46.9288 16.476C47.2808 15.74 47.6808 14.956 48.1288 14.124C48.6088 13.292 49.0728 12.54 49.5208 11.868C49.8728 11.356 50.2088 10.956 50.5288 10.668C50.8488 10.348 51.2008 10.188 51.5848 10.188C52.1608 10.188 52.4488 10.412 52.4488 10.86C52.4488 11.116 52.3368 11.5 52.1128 12.012C51.9208 12.524 51.5528 13.196 51.0088 14.028C50.4008 14.988 49.7768 15.948 49.1368 16.908C48.5288 17.836 48.0008 18.812 47.5528 19.836C47.5208 19.964 47.4408 20.172 47.3128 20.46C47.2168 20.716 47.1368 20.876 47.0728 20.94L48.0328 20.796C48.2888 20.764 48.5768 20.748 48.8968 20.748C49.2168 20.716 49.5688 20.7 49.9528 20.7C50.4968 20.7 51.0088 20.732 51.4888 20.796C52.0008 20.828 52.4168 20.908 52.7368 21.036C52.8968 21.1 53.0408 21.18 53.1688 21.276C53.3288 21.34 53.4088 21.404 53.4088 21.468C53.4088 21.596 52.9928 21.66 52.1608 21.66C51.6808 21.66 50.9928 21.74 50.0968 21.9C49.2328 22.06 48.2408 22.316 47.1208 22.668C46.5768 22.828 46.2088 23.052 46.0168 23.34C45.8248 23.628 45.5688 24.316 45.2488 25.404C44.7688 27.132 44.3848 28.796 44.0968 30.396C43.8088 31.964 43.5848 33.564 43.4248 35.196C43.3928 35.516 43.3608 35.852 43.3288 36.204C43.3288 36.556 43.3288 36.94 43.3288 37.356C43.3288 38.444 43.4248 39.58 43.6168 40.764C43.8408 41.948 44.1608 42.972 44.5768 43.836C44.6728 44.028 44.7688 44.204 44.8648 44.364C44.9928 44.524 45.1368 44.636 45.2968 44.7C45.5208 44.796 45.6328 44.908 45.6328 45.036C45.6328 45.132 45.5528 45.18 45.3928 45.18ZM51.6313 38.46C50.8313 38.46 50.1273 38.172 49.5193 37.596C48.9433 37.052 48.6553 36.108 48.6553 34.764C48.6553 34.06 48.7993 33.196 49.0873 32.172C49.3753 31.116 49.7593 30.012 50.2393 28.86C50.7513 27.708 51.3273 26.636 51.9673 25.644C52.6073 24.652 53.2793 23.836 53.9833 23.196C54.6873 22.556 55.3753 22.236 56.0473 22.236C56.5913 22.236 56.9753 22.428 57.1993 22.812C57.4553 23.196 57.5833 23.612 57.5833 24.06C57.5833 24.444 57.5033 24.796 57.3433 25.116C57.2153 25.404 57.0233 25.548 56.7673 25.548C56.5113 25.548 56.3193 25.436 56.1913 25.212C56.0953 24.956 55.9993 24.716 55.9033 24.492C55.8393 24.236 55.6633 24.108 55.3753 24.108C54.7993 24.108 54.2233 24.492 53.6473 25.26C53.0713 25.996 52.5433 26.94 52.0633 28.092C51.5833 29.244 51.1993 30.428 50.9113 31.644C50.6233 32.86 50.4793 33.932 50.4793 34.86C50.4793 35.66 50.5753 36.252 50.7673 36.636C50.9913 36.988 51.3913 37.164 51.9673 37.164C52.7033 37.164 53.4073 36.956 54.0793 36.54C54.7833 36.092 55.4233 35.548 55.9993 34.908C56.5753 34.268 57.0553 33.66 57.4393 33.084C57.8553 32.508 58.1433 32.076 58.3033 31.788C58.6873 31.052 58.9913 30.684 59.2153 30.684C59.3113 30.684 59.3593 30.812 59.3593 31.068C59.3593 31.388 59.2953 31.708 59.1673 32.028C59.0393 32.316 58.9113 32.588 58.7833 32.844C58.3353 33.804 57.7273 34.716 56.9593 35.58C56.1913 36.412 55.3433 37.1 54.4153 37.644C53.5193 38.188 52.5913 38.46 51.6313 38.46ZM63.4689 45.9C62.7329 45.9 62.1729 45.596 61.7889 44.988C61.4369 44.38 61.2609 43.676 61.2609 42.876C61.2609 41.916 61.4369 40.812 61.7889 39.564C62.1729 38.348 62.6369 37.1 63.1809 35.82C63.7249 34.508 64.2849 33.244 64.8609 32.028C65.4689 30.812 65.9969 29.724 66.4449 28.764C66.9249 27.804 67.2449 27.068 67.4049 26.556C67.5969 25.98 67.6929 25.548 67.6929 25.26C67.6929 24.94 67.5809 24.78 67.3569 24.78C67.1009 24.78 66.7169 24.988 66.2049 25.404C65.7249 25.788 65.2449 26.22 64.7649 26.7C64.3169 27.18 63.9969 27.532 63.8049 27.756C62.7809 28.908 61.8529 30.188 61.0209 31.596C60.2209 33.004 59.7249 34.204 59.5329 35.196C59.5009 35.356 59.4369 35.644 59.3409 36.06C59.2769 36.476 59.1329 36.668 58.9089 36.636C58.5889 36.572 58.3649 36.38 58.2369 36.06C58.1409 35.708 58.0769 35.388 58.0449 35.1C58.0449 34.94 58.0289 34.78 57.9969 34.62C57.9969 34.428 57.9969 34.236 57.9969 34.044C57.9969 32.476 58.1729 30.7 58.5249 28.716C58.8769 26.732 59.3249 24.7 59.8689 22.62C60.4449 20.54 61.0529 18.604 61.6929 16.812C62.3329 15.02 62.9409 13.532 63.5169 12.348C63.8049 11.772 64.1249 11.228 64.4769 10.716C64.8289 10.172 65.1809 9.9 65.5329 9.9C65.7569 9.9 65.9489 10.012 66.1089 10.236C66.3009 10.46 66.3969 10.652 66.3969 10.812C66.3969 10.94 66.1729 11.452 65.7249 12.348C65.3089 13.212 64.7649 14.364 64.0929 15.804C63.4209 17.212 62.7329 18.828 62.0289 20.652C61.3569 22.476 60.7489 24.428 60.2049 26.508C59.6609 28.588 59.2929 30.7 59.1009 32.844C59.1009 32.876 59.0849 33.036 59.0529 33.324C59.0209 33.612 58.9889 33.9 58.9569 34.188C58.9569 34.476 58.9569 34.62 58.9569 34.62V34.572H59.0049C59.0689 34.188 59.1809 33.82 59.3409 33.468C59.5329 33.116 59.7249 32.78 59.9169 32.46C60.8769 30.54 62.1089 28.7 63.6129 26.94C64.3489 26.108 65.1169 25.388 65.9169 24.78C66.7169 24.14 67.5489 23.82 68.4129 23.82C68.7649 23.82 69.0689 23.916 69.3249 24.108C69.5809 24.3 69.7089 24.668 69.7089 25.212C69.7089 25.916 69.4689 26.748 68.9889 27.708C68.5409 28.636 67.9809 29.612 67.3089 30.636C66.6689 31.628 66.0769 32.572 65.5329 33.468C64.7969 34.716 64.1249 36.044 63.5169 37.452C62.9409 38.828 62.6529 40.268 62.6529 41.772C62.6529 42.22 62.6849 42.7 62.7489 43.212C62.8449 43.724 62.9889 44.156 63.1809 44.508C63.4049 44.892 63.7089 45.084 64.0929 45.084C64.3489 45.084 64.5889 45.004 64.8129 44.844C65.0689 44.716 65.2769 44.588 65.4369 44.46C65.7249 44.172 65.9169 44.028 66.0129 44.028C66.1089 44.028 66.1569 44.076 66.1569 44.172C66.1569 44.364 66.0769 44.54 65.9169 44.7C65.7569 44.892 65.5969 45.036 65.4369 45.132C65.2129 45.324 64.9089 45.5 64.5249 45.66C64.1729 45.82 63.8209 45.9 63.4689 45.9ZM73.5669 38.124C72.4149 38.124 71.4069 37.452 70.5429 36.108C69.7109 34.732 69.2949 32.572 69.2949 29.628C69.2949 27.708 69.5349 26.172 70.0149 25.02C70.4949 23.836 71.0869 22.972 71.7909 22.428C72.4949 21.884 73.1669 21.612 73.8069 21.612C74.4469 21.612 74.9909 21.836 75.4389 22.284C75.8869 22.7 76.1109 23.308 76.1109 24.108C76.1109 24.876 75.8869 25.692 75.4389 26.556C74.9909 27.388 74.4469 28.156 73.8069 28.86C73.1989 29.532 72.5909 29.98 71.9829 30.204C71.8549 30.268 71.6949 30.3 71.5029 30.3C71.3749 30.3 71.3109 30.252 71.3109 30.156C71.3109 29.9 71.5669 29.612 72.0789 29.292C72.7189 28.844 73.3269 28.172 73.9029 27.276C74.4789 26.348 74.7669 25.532 74.7669 24.828C74.7669 24.412 74.6709 24.092 74.4789 23.868C74.2869 23.612 74.0629 23.484 73.8069 23.484C73.3269 23.484 72.7989 23.868 72.2229 24.636C71.6789 25.372 71.2789 26.652 71.0229 28.476C70.9589 28.988 70.8949 29.484 70.8309 29.964C70.7989 30.412 70.7829 30.86 70.7829 31.308C70.7829 33.1 71.0549 34.508 71.5989 35.532C72.1429 36.524 72.8629 37.02 73.7589 37.02C74.5269 37.02 75.3909 36.572 76.3509 35.676C77.3109 34.748 78.2549 33.308 79.1829 31.356C79.4069 30.844 79.6629 30.588 79.9509 30.588C80.1429 30.588 80.2389 30.716 80.2389 30.972C80.2389 31.196 80.1749 31.436 80.0469 31.692C79.2149 33.74 78.2069 35.324 77.0229 36.444C75.8389 37.564 74.6869 38.124 73.5669 38.124ZM88.9865 38.124C88.5705 38.124 88.2025 37.868 87.8825 37.356C87.5625 36.812 87.4025 35.788 87.4025 34.284C87.4025 33.1 87.4985 31.804 87.6905 30.396C87.8825 28.956 88.0905 27.532 88.3145 26.124C88.5705 24.716 88.7945 23.468 88.9865 22.38C89.1785 21.26 89.2745 20.444 89.2745 19.932C89.2745 19.036 89.0025 18.588 88.4585 18.588C87.9465 18.588 87.4185 18.844 86.8745 19.356C86.3625 19.868 85.8665 20.492 85.3865 21.228C84.9385 21.964 84.5385 22.684 84.1865 23.388C83.8665 24.06 83.6585 24.556 83.5625 24.876C83.1145 26.124 82.7945 27.372 82.6025 28.62C82.4105 29.836 82.3145 31.1 82.3145 32.412C82.3145 32.956 82.3305 33.516 82.3625 34.092C82.4265 34.668 82.4745 35.26 82.5065 35.868C82.5705 36.188 82.4745 36.588 82.2185 37.068C81.9945 37.516 81.7225 37.74 81.4025 37.74C81.1785 37.74 80.9865 37.596 80.8265 37.308C80.6665 37.02 80.5545 36.764 80.4905 36.54C80.3625 36.156 80.2665 35.756 80.2025 35.34C80.1385 34.892 80.0745 34.508 80.0105 34.188C79.7865 32.876 79.5785 31.548 79.3865 30.204C79.1945 28.828 78.9225 27.5 78.5705 26.22C78.4745 25.868 78.3465 25.5 78.1865 25.116C78.0585 24.7 77.8505 24.364 77.5625 24.108C77.4985 24.044 77.4025 23.98 77.2745 23.916C77.1465 23.82 77.0825 23.74 77.0825 23.676C77.0825 23.548 77.2585 23.484 77.6105 23.484C77.9945 23.484 78.3785 23.676 78.7625 24.06C79.1465 24.444 79.4985 24.956 79.8185 25.596C80.2025 26.396 80.5225 27.244 80.7785 28.14C81.0665 29.036 81.2905 29.756 81.4505 30.3C81.6425 29.148 81.8505 28.124 82.0745 27.228C82.2985 26.46 82.6025 25.548 82.9865 24.492C83.3705 23.404 83.8505 22.348 84.4265 21.324C85.0025 20.268 85.6905 19.404 86.4905 18.732C87.2905 18.028 88.2185 17.676 89.2745 17.676C90.8105 17.676 91.5785 18.572 91.5785 20.364C91.5785 21.292 91.4185 22.316 91.0985 23.436C90.7785 24.524 90.4265 25.532 90.0425 26.46C89.6905 27.388 89.4505 28.028 89.3225 28.38C89.1625 28.828 88.9865 29.436 88.7945 30.204C88.6345 30.972 88.4905 31.772 88.3625 32.604C88.2665 33.436 88.2185 34.204 88.2185 34.908C88.2185 35.516 88.2825 36.028 88.4105 36.444C88.5705 36.828 88.8105 37.02 89.1305 37.02C89.4505 37.02 89.7385 36.876 89.9945 36.588C90.2505 36.268 90.4585 35.98 90.6185 35.724C90.8105 35.468 90.9065 35.42 90.9065 35.58C90.9705 36.06 90.7945 36.604 90.3785 37.212C89.9945 37.82 89.5305 38.124 88.9865 38.124ZM109.37 42.972C108.538 42.972 107.818 42.492 107.21 41.532C106.602 40.604 106.17 39.084 105.914 36.972C105.882 36.812 105.866 36.62 105.866 36.396C105.866 36.14 105.866 35.884 105.866 35.628C105.866 34.572 105.93 33.244 106.058 31.644C106.186 30.012 106.346 28.22 106.538 26.268C106.73 24.316 106.906 22.316 107.066 20.268C107.258 18.188 107.418 16.156 107.546 14.172C107.674 12.188 107.738 10.38 107.738 8.748C107.738 6.732 107.61 5.1 107.354 3.852C107.098 2.604 106.634 1.98 105.962 1.98C105.546 1.98 105.13 2.22 104.714 2.7C104.33 3.148 103.978 3.66 103.658 4.236C103.37 4.78 103.13 5.228 102.938 5.58C102.778 5.9 102.682 5.948 102.65 5.724C102.618 5.596 102.586 5.484 102.554 5.388C102.554 5.26 102.554 5.132 102.554 5.004C102.554 4.396 102.698 3.756 102.986 3.084C103.274 2.412 103.674 1.852 104.186 1.404C104.698 0.923999 105.274 0.683999 105.914 0.683999C106.042 0.683999 106.154 0.699999 106.25 0.731998C106.346 0.731998 106.442 0.747998 106.538 0.779998C107.786 1.1 108.634 2.124 109.082 3.852C109.53 5.58 109.754 7.676 109.754 10.14C109.754 11.996 109.658 13.964 109.466 16.044C109.306 18.124 109.114 20.22 108.89 22.332C108.698 24.412 108.506 26.396 108.314 28.284C108.154 30.172 108.074 31.836 108.074 33.276C108.074 33.692 108.074 34.092 108.074 34.476C108.106 34.828 108.138 35.164 108.17 35.484C108.426 37.5 108.778 38.908 109.226 39.708C109.674 40.54 110.186 40.956 110.762 40.956C111.402 40.956 112.058 40.604 112.73 39.9C113.434 39.196 114.122 38.316 114.794 37.26C115.466 36.204 116.074 35.148 116.618 34.092C117.354 32.716 118.026 31.1 118.634 29.244C119.242 27.388 119.786 25.5 120.266 23.58C120.778 21.66 121.178 19.9 121.466 18.3C121.146 17.756 120.954 17.196 120.89 16.62C120.826 16.044 120.794 15.308 120.794 14.412C120.794 13.452 120.97 12.7 121.322 12.156C121.674 11.612 122.042 11.34 122.426 11.34C123.002 11.34 123.386 11.82 123.578 12.78C123.93 14.38 124.282 16.076 124.634 17.868C124.986 19.628 125.37 21.356 125.786 23.052C126.234 24.748 126.746 26.316 127.322 27.756C128.506 30.604 129.594 32.652 130.586 33.9C131.578 35.116 132.49 35.724 133.322 35.724C134.186 35.724 134.938 35.18 135.578 34.092C136.25 32.972 136.81 31.516 137.258 29.724C137.706 27.9 138.042 25.932 138.266 23.82C138.49 21.676 138.602 19.58 138.602 17.532C138.602 15.836 138.522 14.252 138.362 12.78C138.234 11.308 137.994 10.108 137.642 9.18C137.514 8.796 137.418 8.396 137.354 7.98C137.29 7.564 137.258 7.18 137.258 6.828C137.258 6.38 137.306 5.996 137.402 5.676C137.53 5.356 137.706 5.196 137.93 5.196C138.186 5.196 138.442 5.388 138.698 5.772C139.05 6.22 139.37 6.844 139.658 7.644C139.978 8.412 140.25 9.084 140.474 9.66C140.73 10.3 141.066 11.084 141.482 12.012C141.898 12.908 142.33 13.74 142.778 14.508C143.258 15.244 143.722 15.692 144.17 15.852C144.234 15.884 144.266 15.948 144.266 16.044C144.266 16.236 144.122 16.396 143.834 16.524C143.546 16.652 143.338 16.7 143.21 16.668C142.474 16.316 141.85 15.948 141.338 15.564C140.858 15.148 140.298 14.396 139.658 13.308C139.69 13.884 139.706 14.476 139.706 15.084C139.706 15.66 139.706 16.236 139.706 16.812C139.706 18.476 139.642 20.14 139.514 21.804C139.418 23.468 139.21 25.148 138.89 26.844C138.186 30.524 137.29 33.148 136.202 34.716C135.146 36.284 134.026 37.068 132.842 37.068C131.882 37.068 130.922 36.652 129.962 35.82C129.034 34.956 128.17 33.82 127.37 32.412C126.57 31.004 125.882 29.436 125.306 27.708C124.794 26.044 124.362 24.524 124.01 23.148C123.658 21.74 123.386 20.508 123.194 19.452C122.682 21.756 122.01 24.044 121.178 26.316C120.378 28.588 119.482 30.732 118.49 32.748C117.498 34.732 116.458 36.492 115.37 38.028C114.314 39.564 113.258 40.764 112.202 41.628C111.178 42.524 110.234 42.972 109.37 42.972ZM146.891 39.18C145.835 39.18 144.971 38.86 144.299 38.22C143.659 37.58 143.179 36.764 142.859 35.772C142.539 34.748 142.379 33.676 142.379 32.556C142.379 31.884 142.443 31.244 142.571 30.636C142.699 30.028 142.827 29.532 142.955 29.148C142.923 28.924 142.891 28.7 142.859 28.476C142.859 28.22 142.859 27.964 142.859 27.708C142.859 26.78 142.955 25.772 143.147 24.684C143.339 23.596 143.643 22.556 144.059 21.564C144.507 20.572 145.051 19.772 145.691 19.164C146.363 18.524 147.179 18.204 148.139 18.204C148.971 18.204 149.787 18.556 150.587 19.26C151.387 19.932 152.091 20.924 152.699 22.236C153.051 22.972 153.291 23.772 153.419 24.636C153.579 25.468 153.659 26.316 153.659 27.18C153.659 28.364 153.531 29.548 153.275 30.732C153.051 31.884 152.715 32.972 152.267 33.996C151.947 34.732 151.515 35.516 150.971 36.348C150.459 37.148 149.867 37.82 149.195 38.364C148.523 38.908 147.755 39.18 146.891 39.18ZM147.131 38.124C148.219 38.124 149.227 37.372 150.155 35.868C150.827 34.812 151.307 33.612 151.595 32.268C151.883 30.892 152.027 29.516 152.027 28.14C152.027 27.116 151.963 26.124 151.835 25.164C151.707 24.204 151.515 23.276 151.259 22.38C151.035 21.58 150.651 20.876 150.107 20.268C149.595 19.628 148.859 19.356 147.899 19.452C147.131 19.516 146.459 19.9 145.883 20.604C145.307 21.308 144.859 22.108 144.539 23.004C144.251 23.868 144.107 24.62 144.107 25.26C144.107 25.612 144.155 25.884 144.251 26.076C144.347 25.82 144.587 25.404 144.971 24.828C145.355 24.22 145.787 23.676 146.267 23.196C146.747 22.684 147.195 22.428 147.611 22.428C147.963 22.428 148.139 22.572 148.139 22.86C147.723 22.892 147.307 23.148 146.891 23.628C146.507 24.076 146.139 24.62 145.787 25.26C145.467 25.9 145.195 26.54 144.971 27.18C144.779 27.788 144.635 28.268 144.539 28.62C144.507 28.748 144.459 28.908 144.395 29.1C144.331 29.292 144.299 29.484 144.299 29.676C144.299 29.9 144.427 30.268 144.683 30.78C144.939 31.26 145.355 31.708 145.931 32.124C146.507 32.54 147.291 32.748 148.283 32.748C148.571 32.748 148.875 32.716 149.195 32.652C149.515 32.588 149.819 32.524 150.107 32.46L150.443 32.364C150.507 32.364 150.539 32.396 150.539 32.46C150.539 32.556 150.427 32.684 150.203 32.844C150.011 32.972 149.835 33.068 149.675 33.132C149.227 33.356 148.731 33.468 148.187 33.468C147.387 33.468 146.619 33.228 145.883 32.748C145.179 32.236 144.555 31.66 144.011 31.02C143.979 31.276 143.963 31.532 143.963 31.788C143.963 32.012 143.963 32.236 143.963 32.46C143.963 34.316 144.283 35.724 144.923 36.684C145.563 37.644 146.299 38.124 147.131 38.124ZM161.601 39.9C160.577 39.9 159.793 39.42 159.249 38.46C158.705 37.532 158.433 36.508 158.433 35.388C158.433 34.332 158.609 33.228 158.961 32.076C159.313 30.924 159.745 29.788 160.257 28.668C160.801 27.548 161.361 26.524 161.937 25.596C161.361 25.82 160.817 25.932 160.305 25.932C160.049 25.932 159.825 25.9 159.633 25.836C159.441 25.772 159.281 25.724 159.153 25.692C158.993 26.076 158.705 26.716 158.289 27.612C157.905 28.508 157.489 29.452 157.041 30.444C156.625 31.404 156.257 32.22 155.937 32.892C155.425 33.98 154.977 34.524 154.593 34.524C154.401 34.524 154.305 34.396 154.305 34.14C154.305 33.948 154.385 33.692 154.545 33.372C155.281 31.996 155.969 30.636 156.609 29.292C157.281 27.948 157.889 26.652 158.433 25.404C158.369 25.244 158.305 25.036 158.241 24.78C158.177 24.492 158.145 24.188 158.145 23.868C158.145 23.516 158.177 23.148 158.241 22.764C158.337 22.348 158.465 21.948 158.625 21.564C158.721 21.34 158.897 21.02 159.153 20.604C159.409 20.156 159.697 19.756 160.017 19.404C160.337 19.02 160.641 18.828 160.929 18.828C161.473 18.828 161.745 19.116 161.745 19.692C161.745 20.236 161.569 20.86 161.217 21.564C160.897 22.268 160.561 22.924 160.209 23.532C159.857 24.108 159.681 24.54 159.681 24.828C159.681 25.084 159.809 25.212 160.065 25.212C160.417 25.212 160.849 25.036 161.361 24.684C161.905 24.3 162.337 23.948 162.657 23.628C162.817 23.468 163.073 23.228 163.425 22.908C163.777 22.556 164.113 22.38 164.433 22.38C164.753 22.38 164.961 22.476 165.057 22.668C165.185 22.86 165.249 23.084 165.249 23.34C165.249 23.628 165.121 23.996 164.865 24.444C164.609 24.86 164.305 25.276 163.953 25.692C163.633 26.108 163.361 26.46 163.137 26.748C162.689 27.42 162.177 28.268 161.601 29.292C161.025 30.316 160.529 31.42 160.113 32.604C159.697 33.756 159.489 34.86 159.489 35.916C159.489 36.62 159.665 37.356 160.017 38.124C160.369 38.892 160.849 39.276 161.457 39.276C162.001 39.276 162.577 38.988 163.185 38.412C163.825 37.836 164.417 37.148 164.961 36.348C165.537 35.548 166.033 34.78 166.449 34.044C166.897 33.308 167.201 32.796 167.361 32.508C167.425 32.348 167.537 32.156 167.697 31.932C167.857 31.676 168.049 31.548 168.273 31.548C168.465 31.548 168.561 31.644 168.561 31.836C168.561 31.996 168.513 32.188 168.417 32.412C168.353 32.604 168.289 32.78 168.225 32.94C167.937 33.612 167.585 34.316 167.169 35.052C166.753 35.788 166.465 36.284 166.305 36.54C165.857 37.276 165.185 38.012 164.289 38.748C163.425 39.516 162.529 39.9 161.601 39.9ZM174.889 45.132C174.473 45.132 174.073 44.972 173.689 44.652C173.337 44.332 173.033 44.012 172.777 43.692C171.753 42.508 170.889 40.94 170.185 38.988C169.513 37.036 169.001 34.892 168.649 32.556C168.297 30.188 168.121 27.788 168.121 25.356C168.121 23.084 168.265 20.876 168.553 18.732C168.873 16.588 169.353 14.636 169.993 12.876C170.633 11.116 171.433 9.708 172.393 8.652C173.641 7.244 174.841 6.54 175.993 6.54C176.697 6.54 177.257 6.86 177.673 7.5C178.121 8.108 178.345 9.084 178.345 10.428C178.345 11.708 178.089 13.34 177.577 15.324C177.097 17.276 176.265 19.612 175.081 22.332C174.665 23.228 174.217 24.124 173.737 25.02C173.289 25.916 172.809 26.86 172.297 27.852C172.105 28.236 171.945 28.428 171.817 28.428C171.753 28.428 171.721 28.364 171.721 28.236C171.721 27.98 171.833 27.644 172.057 27.228C174.969 21.756 176.425 16.316 176.425 10.908C176.425 8.764 175.977 7.692 175.081 7.692C174.441 7.692 173.689 8.316 172.825 9.564C171.641 11.324 170.825 13.42 170.377 15.852C169.929 18.252 169.705 20.684 169.705 23.148C169.705 25.004 169.785 26.812 169.945 28.572C170.105 30.3 170.297 31.868 170.521 33.276C170.617 33.884 170.761 34.7 170.953 35.724C171.145 36.748 171.401 37.82 171.721 38.94C172.041 40.092 172.393 41.132 172.777 42.06C173.193 43.02 173.641 43.708 174.121 44.124C174.249 44.22 174.377 44.316 174.505 44.412C174.665 44.54 174.841 44.62 175.033 44.652C175.321 44.652 175.465 44.732 175.465 44.892C175.465 45.052 175.273 45.132 174.889 45.132ZM177.191 39.756C176.423 39.756 175.847 39.42 175.463 38.748C175.079 38.108 174.887 37.292 174.887 36.3C174.887 35.596 175.031 34.716 175.319 33.66C175.607 32.604 176.007 31.5 176.519 30.348C177.031 29.196 177.607 28.124 178.247 27.132C178.887 26.108 179.543 25.292 180.215 24.684C180.919 24.044 181.607 23.724 182.279 23.724C182.823 23.724 183.207 23.932 183.431 24.348C183.687 24.732 183.815 25.148 183.815 25.596C183.815 25.98 183.735 26.332 183.575 26.652C183.447 26.94 183.255 27.084 182.999 27.084C182.743 27.084 182.551 26.972 182.423 26.748C182.327 26.492 182.231 26.236 182.135 25.98C182.071 25.724 181.895 25.596 181.607 25.596C181.031 25.596 180.455 25.964 179.879 26.7C179.303 27.436 178.775 28.364 178.295 29.484C177.815 30.604 177.431 31.772 177.143 32.988C176.855 34.172 176.711 35.228 176.711 36.156C176.711 36.828 176.791 37.356 176.951 37.74C177.143 38.156 177.447 38.364 177.863 38.364C178.407 38.364 178.951 38.028 179.495 37.356C180.071 36.652 180.631 35.756 181.175 34.668C181.719 33.548 182.215 32.38 182.663 31.164C183.143 29.948 183.543 28.812 183.863 27.756C184.215 26.668 184.487 25.804 184.679 25.164C184.935 22.924 185.239 20.668 185.591 18.396C185.975 16.124 186.535 13.916 187.271 11.772C187.367 11.42 187.511 11.116 187.703 10.86C187.927 10.604 188.151 10.476 188.375 10.476C188.631 10.476 188.839 10.652 188.999 11.004C189.191 11.356 189.287 11.756 189.287 12.204C189.287 12.556 189.223 12.924 189.095 13.308C188.967 13.692 188.807 14.204 188.615 14.844C188.391 15.612 188.103 16.636 187.751 17.916C187.431 19.164 187.095 20.588 186.743 22.188C186.391 23.756 186.087 25.436 185.831 27.228C185.607 28.988 185.495 30.748 185.495 32.508C185.495 33.852 185.591 34.796 185.783 35.34C185.975 35.884 186.231 36.156 186.551 36.156C186.903 36.156 187.287 35.932 187.703 35.484C188.151 35.036 188.583 34.492 188.999 33.852C189.447 33.212 189.847 32.572 190.199 31.932C190.551 31.26 190.823 30.732 191.015 30.348C191.367 29.644 191.639 29.292 191.831 29.292C191.959 29.292 192.023 29.436 192.023 29.724C192.023 29.948 191.975 30.188 191.879 30.444C191.687 30.86 191.559 31.18 191.495 31.404C191.431 31.596 191.351 31.788 191.255 31.98C191.191 32.172 191.031 32.476 190.775 32.892C190.551 33.276 190.199 33.804 189.719 34.476C189.239 35.116 188.695 35.708 188.087 36.252C187.479 36.764 186.871 37.02 186.263 37.02C185.655 37.02 185.191 36.764 184.871 36.252C184.583 35.74 184.391 35.084 184.295 34.284C184.231 33.452 184.199 32.604 184.199 31.74C184.199 30.684 184.247 29.564 184.343 28.38C184.119 29.148 183.815 30.06 183.431 31.116C183.047 32.14 182.615 33.18 182.135 34.236C181.655 35.292 181.143 36.252 180.599 37.116C180.151 37.82 179.655 38.428 179.111 38.94C178.567 39.484 177.927 39.756 177.191 39.756Z" fill="#DE8443"/>
</svg>
