<svg width="25" height="32" viewBox="0 0 25 32" fill="none" xmlns="http://www.w3.org/2000/svg">
<path d="M1 30.9997V30.9993V3.99991C1 3.07167 1.36874 2.18146 2.0251 1.5251C2.68146 0.868739 3.57168 0.5 4.49991 0.5H20.4995C21.4278 0.5 22.318 0.868739 22.9743 1.5251C23.6307 2.18146 23.9995 3.07168 23.9995 3.99991V30.9993V30.9997C23.9995 31.0865 23.977 31.1718 23.934 31.2473C23.8911 31.3227 23.8292 31.3857 23.7546 31.43C23.6799 31.4743 23.595 31.4984 23.5082 31.4999C23.4214 31.5014 23.3357 31.4803 23.2595 31.4386L23.259 31.4384L12.7392 25.6985L12.4997 25.5678L12.2602 25.6985L1.74048 31.4384L1.73996 31.4386C1.6638 31.4803 1.57809 31.5014 1.49129 31.4999C1.40447 31.4984 1.31955 31.4743 1.24488 31.43C1.17021 31.3857 1.10836 31.3227 1.06542 31.2473C1.02248 31.1718 0.999937 31.0865 1 30.9997ZM13.9997 8.99979C13.9997 8.60198 13.8417 8.22045 13.5604 7.93915C13.2791 7.65785 12.8975 7.49982 12.4997 7.49982C12.1019 7.49982 11.7204 7.65785 11.4391 7.93915C11.1578 8.22045 10.9997 8.60198 10.9997 8.99979V11.4997H8.49982C8.102 11.4997 7.72047 11.6578 7.43917 11.9391C7.15787 12.2204 6.99984 12.6019 6.99984 12.9997C6.99984 13.3975 7.15787 13.779 7.43917 14.0603C7.72047 14.3416 8.102 14.4997 8.49982 14.4997H10.9997V16.9996C10.9997 17.3974 11.1578 17.779 11.4391 18.0603C11.7204 18.3416 12.1019 18.4996 12.4997 18.4996C12.8975 18.4996 13.2791 18.3416 13.5604 18.0603C13.8417 17.779 13.9997 17.3974 13.9997 16.9996V14.4997H16.4996C16.8975 14.4997 17.279 14.3416 17.5603 14.0603C17.8416 13.779 17.9996 13.3975 17.9996 12.9997C17.9996 12.6019 17.8416 12.2204 17.5603 11.9391C17.279 11.6578 16.8975 11.4997 16.4996 11.4997H13.9997V8.99979Z" fill="#EB452E" stroke="black"/>
</svg>
