<svg width="25" height="32" viewBox="0 0 25 32" fill="none" xmlns="http://www.w3.org/2000/svg">
<path d="M0.632812 4.00006C0.632812 2.93918 1.05425 1.92175 1.8044 1.17159C2.55456 0.421434 3.57199 0 4.63288 0L20.6331 0C21.694 0 22.7114 0.421434 23.4616 1.17159C24.2118 1.92175 24.6332 2.93918 24.6332 4.00006V31.0005C24.6331 31.1814 24.584 31.3589 24.491 31.514C24.398 31.6692 24.2647 31.7962 24.1052 31.8816C23.9457 31.967 23.7661 32.0075 23.5854 31.9989C23.4047 31.9902 23.2298 31.9327 23.0792 31.8325L12.633 26.2024L2.18684 31.8325C2.03625 31.9327 1.86129 31.9902 1.68061 31.9989C1.49993 32.0075 1.32029 31.967 1.16082 31.8816C1.00135 31.7962 0.868024 31.6692 0.775043 31.514C0.682061 31.3589 0.632906 31.1814 0.632812 31.0005V4.00006ZM4.63288 2.00003C4.10244 2.00003 3.59372 2.21075 3.21864 2.58583C2.84356 2.96091 2.63284 3.46962 2.63284 4.00006V29.1325L12.079 24.1684C12.2431 24.0592 12.4359 24.0009 12.633 24.0009C12.8301 24.0009 13.0229 24.0592 13.187 24.1684L22.6332 29.1325V4.00006C22.6332 3.46962 22.4224 2.96091 22.0474 2.58583C21.6723 2.21075 21.1636 2.00003 20.6331 2.00003H4.63288Z" fill="black"/>
<path d="M12.6329 8C12.8981 8 13.1525 8.10536 13.34 8.2929C13.5276 8.48044 13.6329 8.7348 13.6329 9.00002V12.0001H16.633C16.8982 12.0001 17.1525 12.1054 17.3401 12.293C17.5276 12.4805 17.633 12.7349 17.633 13.0001C17.633 13.2653 17.5276 13.5197 17.3401 13.7072C17.1525 13.8947 16.8982 14.0001 16.633 14.0001H13.6329V17.0001C13.6329 17.2654 13.5276 17.5197 13.34 17.7073C13.1525 17.8948 12.8981 18.0002 12.6329 18.0002C12.3677 18.0002 12.1133 17.8948 11.9258 17.7073C11.7382 17.5197 11.6329 17.2654 11.6329 17.0001V14.0001H8.63283C8.36761 14.0001 8.11325 13.8947 7.92571 13.7072C7.73817 13.5197 7.63281 13.2653 7.63281 13.0001C7.63281 12.7349 7.73817 12.4805 7.92571 12.293C8.11325 12.1054 8.36761 12.0001 8.63283 12.0001H11.6329V9.00002C11.6329 8.7348 11.7382 8.48044 11.9258 8.2929C12.1133 8.10536 12.3677 8 12.6329 8Z" fill="black"/>
</svg>
