<svg width="33" height="32" viewBox="0 0 33 32" fill="none" xmlns="http://www.w3.org/2000/svg">
<path d="M14.6197 16C14.6197 16.4547 14.8003 16.8907 15.1218 17.2122C15.4433 17.5337 15.8793 17.7143 16.334 17.7143C16.7886 17.7143 17.2247 17.5337 17.5462 17.2122C17.8676 16.8907 18.0483 16.4547 18.0483 16C18.0483 15.5453 17.8676 15.1093 17.5462 14.7878C17.2247 14.4663 16.7886 14.2857 16.334 14.2857C15.8793 14.2857 15.4433 14.4663 15.1218 14.7878C14.8003 15.1093 14.6197 15.5453 14.6197 16V16ZM21.7625 16C21.7625 16.4547 21.9431 16.8907 22.2646 17.2122C22.5861 17.5337 23.0221 17.7143 23.4768 17.7143C23.9314 17.7143 24.3674 17.5337 24.6889 17.2122C25.0104 16.8907 25.191 16.4547 25.191 16C25.191 15.5453 25.0104 15.1093 24.6889 14.7878C24.3674 14.4663 23.9314 14.2857 23.4768 14.2857C23.0221 14.2857 22.5861 14.4663 22.2646 14.7878C21.9431 15.1093 21.7625 15.5453 21.7625 16ZM7.47695 16C7.47695 16.4547 7.65756 16.8907 7.97905 17.2122C8.30054 17.5337 8.73657 17.7143 9.19122 17.7143C9.64587 17.7143 10.0819 17.5337 10.4034 17.2122C10.7249 16.8907 10.9055 16.4547 10.9055 16C10.9055 15.5453 10.7249 15.1093 10.4034 14.7878C10.0819 14.4663 9.64587 14.2857 9.19122 14.2857C8.73657 14.2857 8.30054 14.4663 7.97905 14.7878C7.65756 15.1093 7.47695 15.5453 7.47695 16V16ZM31.0909 9.8C30.2838 7.88214 29.1267 6.16071 27.6517 4.68214C26.187 3.21213 24.4483 2.04365 22.5339 1.24286C20.5696 0.417857 18.484 0 16.334 0H16.2626C14.0983 0.0107143 12.0019 0.439286 10.0305 1.28214C8.13251 2.09115 6.41005 3.2617 4.95913 4.72857C3.49843 6.20357 2.35202 7.91786 1.55917 9.82857C0.737753 11.8071 0.323473 13.9107 0.334187 16.075C0.346306 18.5553 0.933079 20.999 2.04845 23.2143V28.6429C2.04845 29.0786 2.22154 29.4964 2.52963 29.8045C2.83772 30.1126 3.25558 30.2857 3.69129 30.2857H9.12336C11.3387 31.4011 13.7823 31.9879 16.2626 32H16.3376C18.4768 32 20.5518 31.5857 22.5053 30.775C24.4101 29.9838 26.1423 28.8289 27.6053 27.375C29.0803 25.9143 30.241 24.2071 31.0517 22.3036C31.8945 20.3321 32.3231 18.2357 32.3338 16.0714C32.3445 13.8964 31.9231 11.7857 31.0909 9.8V9.8ZM25.6946 25.4429C23.191 27.9214 19.8697 29.2857 16.334 29.2857H16.2733C14.1197 29.275 11.9805 28.7393 10.0912 27.7321L9.79121 27.5714H4.7627V22.5429L4.60199 22.2429C3.59486 20.3536 3.05915 18.2143 3.04844 16.0607C3.03415 12.5 4.39485 9.15714 6.89125 6.63929C9.38407 4.12143 12.7162 2.72857 16.2768 2.71429H16.3376C18.1232 2.71429 19.8554 3.06071 21.4875 3.74643C23.0803 4.41429 24.5089 5.375 25.7374 6.60357C26.9624 7.82857 27.9267 9.26071 28.5945 10.8536C29.2874 12.5036 29.6338 14.2536 29.6267 16.0607C29.6052 19.6179 28.2088 22.95 25.6946 25.4429V25.4429Z" fill="#E4E3E1"/>
</svg>
