<svg width="33" height="32" viewBox="0 0 33 32" fill="none" xmlns="http://www.w3.org/2000/svg">
<path d="M16.0721 29.7857H16.0696C13.8358 29.7746 11.6166 29.2191 9.65483 28.1734L9.65392 28.1729L9.46455 28.0714H4.56153H4.06153V27.5714V22.6684L3.96008 22.479L3.95959 22.4781C2.91383 20.5163 2.35839 18.297 2.34727 16.0632L2.34727 16.0627C2.33246 12.3705 3.74451 8.90008 6.33491 6.28735L16.0721 29.7857ZM16.0721 29.7857H16.1328C19.7998 29.7857 23.2477 28.3697 25.8452 25.7982M16.0721 29.7857L25.8452 25.7982M25.4934 25.4429L25.8454 25.7979C28.4542 23.2114 29.9033 19.7525 29.9255 16.0637L29.9255 16.0627C29.9329 14.1892 29.5735 12.3726 28.8544 10.66C28.1612 9.00682 27.1603 7.52047 25.8898 6.25002C24.6157 4.97587 23.1328 3.97847 21.4797 3.28532C19.7856 2.57363 17.9877 2.21429 16.1364 2.21429L16.0757 2.21428L16.0737 2.21429C12.3812 2.2291 8.92181 3.67461 6.33501 6.28725L25.4934 25.4429ZM25.4934 25.4429L25.8452 25.7982M25.4934 25.4429L25.8452 25.7982M27.0963 5.03505L27.0965 5.03527C28.526 6.46821 29.6466 8.13541 30.4286 9.99325C31.2348 11.917 31.643 13.9612 31.6326 16.069C31.6222 18.1678 31.2068 20.1981 30.3907 22.107L30.3905 22.1077C29.6053 23.9513 28.4814 25.6044 27.0523 27.0197L27.0516 27.0204C25.6348 28.4284 23.9571 29.5469 22.1123 30.3133C20.2198 31.0986 18.2101 31.5 16.1364 31.5H16.0627C13.6601 31.4881 11.293 30.9196 9.14704 29.8391L9.04096 29.7857H8.92219H3.49012C3.18702 29.7857 2.89633 29.6653 2.68201 29.451C2.46769 29.2367 2.34728 28.946 2.34728 28.6429V23.2143V23.0955L2.29387 22.9894C1.21324 20.8431 0.64475 18.4755 0.633009 16.0726L0.633009 16.0725C0.622623 13.9746 1.02402 11.9371 1.81979 10.0203L1.81982 10.0202C2.58748 8.17018 3.6974 6.5101 5.11323 5.0804L5.11344 5.08019C6.51875 3.65943 8.18706 2.52567 10.0254 1.7421L10.0259 1.74189C11.9344 0.925928 13.9642 0.510547 16.0626 0.5H16.1328C18.217 0.5 20.2368 0.904859 22.1391 1.70385L22.1398 1.70413C23.9939 2.47969 25.6778 3.61135 27.0963 5.03505ZM15.2742 16.8586C15.0465 16.6309 14.9185 16.3221 14.9185 16C14.9185 15.6779 15.0465 15.3691 15.2742 15.1414C15.5019 14.9136 15.8108 14.7857 16.1328 14.7857C16.4549 14.7857 16.7637 14.9136 16.9914 15.1414C17.2191 15.3691 17.3471 15.678 17.3471 16C17.3471 16.3221 17.2191 16.6309 16.9914 16.8586C16.7637 17.0864 16.4549 17.2143 16.1328 17.2143C15.8108 17.2143 15.5019 17.0864 15.2742 16.8586ZM22.417 16.8586C22.1892 16.6309 22.0613 16.3221 22.0613 16C22.0613 15.678 22.1893 15.3691 22.417 15.1414C22.6447 14.9136 22.9535 14.7857 23.2756 14.7857C23.5976 14.7857 23.9065 14.9136 24.1342 15.1414C24.3619 15.3691 24.4898 15.678 24.4898 16C24.4898 16.3221 24.3619 16.6309 24.1342 16.8586C23.9065 17.0864 23.5976 17.2143 23.2756 17.2143C22.9535 17.2143 22.6447 17.0864 22.417 16.8586ZM8.13143 16.8586C7.90371 16.6309 7.77578 16.3221 7.77578 16C7.77578 15.6779 7.90372 15.3691 8.13143 15.1414C8.35915 14.9136 8.66801 14.7857 8.99005 14.7857C9.31209 14.7857 9.62094 14.9136 9.84866 15.1414C10.0764 15.3691 10.2043 15.6779 10.2043 16C10.2043 16.3221 10.0764 16.6309 9.84866 16.8586C9.62094 17.0864 9.31209 17.2143 8.99005 17.2143C8.66801 17.2143 8.35915 17.0864 8.13143 16.8586Z" fill="black" stroke="black"/>
</svg>
