<svg width="500" height="500" xmlns="http://www.w3.org/2000/svg">
 <!-- Created with Method Draw - http://github.com/duopixel/Method-Draw/ -->

 <g>
  <title>background</title>
  <rect fill="none" id="canvas_background" height="502" width="502" y="-1" x="-1"/>
  <g display="none" overflow="visible" y="0" x="0" height="100%" width="100%" id="canvasGrid">
   <rect fill="url(#gridpattern)" stroke-width="0" height="400" width="580"/>
  </g>
 </g>
 <g>
  <title>Layer 1</title>
  <g stroke="null" fill="white" id="svg_25">
   <g stroke="null" transform="matrix(15.589254839278892,0,0,15.589254839278892,301.07242755155426,-70.813778424682) " id="svg_7">
    <g stroke="null" id="svg_5">
     <g stroke="null" id="svg_8">
      <path stroke="null" fill="#48b705" id="svg_9" d="m2.385933,20.573905l9.18,-9.172c0.758,-0.755 1.175,-1.76 1.175,-2.828s-0.417,-2.073 -1.175,-2.829c-0.754,-0.755 -1.762,-1.171 -2.83,-1.171c-1.069,0 -2.075,0.416 -2.832,1.171l-9.182,9.172l-9.181,-9.172c-0.756,-0.756 -1.762,-1.172 -2.833,-1.172c-1.068,0 -2.074,0.416 -2.83,1.172c-1.561,1.56 -1.562,4.097 0,5.657l9.182,9.172l-9.181,9.172c-1.562,1.562 -1.562,4.099 0,5.658c0.756,0.755 1.762,1.171 2.831,1.171s2.075,-0.416 2.831,-1.172l9.181,-9.172l9.181,9.171c0.757,0.755 1.762,1.172 2.83,1.172c1.07,0 2.076,-0.416 2.832,-1.172c1.562,-1.562 1.562,-4.099 0,-5.657l-9.179,-9.171zm7.763,13.414c-0.756,0.755 -2.074,0.756 -2.832,0l-9.887,-9.878c-0.392,-0.393 -1.025,-0.393 -1.416,0l-9.889,9.879c-0.757,0.755 -2.075,0.755 -2.832,0c-0.78,-0.78 -0.78,-2.049 0,-2.829l9.889,-9.879c0.188,-0.188 0.293,-0.44 0.293,-0.707c0,-0.265 -0.105,-0.52 -0.293,-0.707l-9.89,-9.879c-0.78,-0.78 -0.78,-2.049 0,-2.829c0.379,-0.378 0.882,-0.586 1.416,-0.586c0.536,0 1.038,0.208 1.417,0.586l9.889,9.879c0.391,0.391 1.024,0.391 1.416,0l9.889,-9.878c0.757,-0.756 2.074,-0.756 2.832,-0.001c0.377,0.378 0.586,0.881 0.586,1.415s-0.209,1.036 -0.586,1.414l-9.889,9.879c-0.392,0.391 -0.392,1.022 0,1.414l9.889,9.878c0.78,0.78 0.78,2.048 -0.002,2.829z"/>
     </g>
    </g>
   </g>
   <g stroke="null" transform="matrix(12.084991094090384,0,0,12.084991094090384,257.99574996150534,-35.17873332726079) " id="svg_10"/>
   <g stroke="null" transform="matrix(12.084991094090384,0,0,12.084991094090384,257.99574996150534,-35.17873332726079) " id="svg_11"/>
   <g stroke="null" transform="matrix(12.084991094090384,0,0,12.084991094090384,257.99574996150534,-35.17873332726079) " id="svg_12"/>
   <g stroke="null" transform="matrix(12.084991094090384,0,0,12.084991094090384,257.99574996150534,-35.17873332726079) " id="svg_13"/>
   <g stroke="null" transform="matrix(12.084991094090384,0,0,12.084991094090384,257.99574996150534,-35.17873332726079) " id="svg_14"/>
   <g stroke="null" transform="matrix(12.084991094090384,0,0,12.084991094090384,257.99574996150534,-35.17873332726079) " id="svg_15"/>
   <g stroke="null" transform="matrix(12.084991094090384,0,0,12.084991094090384,257.99574996150534,-35.17873332726079) " id="svg_16"/>
   <g stroke="null" transform="matrix(12.084991094090384,0,0,12.084991094090384,257.99574996150534,-35.17873332726079) " id="svg_17"/>
   <g stroke="null" transform="matrix(12.084991094090384,0,0,12.084991094090384,257.99574996150534,-35.17873332726079) " id="svg_18"/>
   <g stroke="null" transform="matrix(12.084991094090384,0,0,12.084991094090384,257.99574996150534,-35.17873332726079) " id="svg_19"/>
   <g stroke="null" transform="matrix(12.084991094090384,0,0,12.084991094090384,257.99574996150534,-35.17873332726079) " id="svg_20"/>
   <g stroke="null" transform="matrix(12.084991094090384,0,0,12.084991094090384,257.99574996150534,-35.17873332726079) " id="svg_21"/>
   <g stroke="null" transform="matrix(12.084991094090384,0,0,12.084991094090384,257.99574996150534,-35.17873332726079) " id="svg_22"/>
   <g stroke="null" transform="matrix(12.084991094090384,0,0,12.084991094090384,257.99574996150534,-35.17873332726079) " id="svg_23"/>
   <g stroke="null" transform="matrix(12.084991094090384,0,0,12.084991094090384,257.99574996150534,-35.17873332726079) " id="svg_24"/>
  </g>
 </g>
</svg>