<svg width="30" height="30" viewBox="0 0 30 30" fill="none" xmlns="http://www.w3.org/2000/svg">
<path d="M22.5 5.99959H30V8.99959H27V28.4996C27 28.8974 26.842 29.2789 26.5607 29.5602C26.2794 29.8416 25.8978 29.9996 25.5 29.9996H4.5C4.10218 29.9996 3.72064 29.8416 3.43934 29.5602C3.15804 29.2789 3 28.8974 3 28.4996V8.99959H0V5.99959H7.5V1.49959C7.5 1.10176 7.65804 0.720232 7.93934 0.438928C8.22064 0.157623 8.60218 -0.000411987 9 -0.000411987H21C21.3978 -0.000411987 21.7794 0.157623 22.0607 0.438928C22.342 0.720232 22.5 1.10176 22.5 1.49959V5.99959ZM24 8.99959H6V26.9996H24V8.99959ZM10.5 13.4996H13.5V22.4996H10.5V13.4996ZM16.5 13.4996H19.5V22.4996H16.5V13.4996ZM10.5 2.99959V5.99959H19.5V2.99959H10.5Z" fill="#48B705"/>
</svg>
