<svg width="34" height="8" viewBox="0 0 34 8" fill="none" xmlns="http://www.w3.org/2000/svg">
<path d="M3.92308 7.9233C2.88261 7.9233 1.88476 7.50998 1.14904 6.77426C0.413323 6.03854 0 5.04069 0 4.00023C0 2.95976 0.413323 1.96191 1.14904 1.22619C1.88476 0.490471 2.88261 0.0771484 3.92308 0.0771484C4.96354 0.0771484 5.96139 0.490471 6.69711 1.22619C7.43283 1.96191 7.84615 2.95976 7.84615 4.00023C7.84615 5.04069 7.43283 6.03854 6.69711 6.77426C5.96139 7.50998 4.96354 7.9233 3.92308 7.9233ZM17 7.9233C15.9595 7.9233 14.9617 7.50998 14.226 6.77426C13.4902 6.03854 13.0769 5.04069 13.0769 4.00023C13.0769 2.95976 13.4902 1.96191 14.226 1.22619C14.9617 0.490471 15.9595 0.0771484 17 0.0771484C18.0405 0.0771484 19.0383 0.490471 19.774 1.22619C20.5098 1.96191 20.9231 2.95976 20.9231 4.00023C20.9231 5.04069 20.5098 6.03854 19.774 6.77426C19.0383 7.50998 18.0405 7.9233 17 7.9233ZM30.0769 7.9233C29.0365 7.9233 28.0386 7.50998 27.3029 6.77426C26.5672 6.03854 26.1538 5.04069 26.1538 4.00023C26.1538 2.95976 26.5672 1.96191 27.3029 1.22619C28.0386 0.490471 29.0365 0.0771484 30.0769 0.0771484C31.1174 0.0771484 32.1152 0.490471 32.851 1.22619C33.5867 1.96191 34 2.95976 34 4.00023C34 5.04069 33.5867 6.03854 32.851 6.77426C32.1152 7.50998 31.1174 7.9233 30.0769 7.9233Z" fill="black"/>
</svg>
