<svg width="30" height="30" viewBox="0 0 30 30" fill="none" xmlns="http://www.w3.org/2000/svg">
<path d="M7.59071 27.0592L7.59065 27.0592C7.26232 27.3876 6.84413 27.6114 6.3888 27.7025L6.38877 27.7025L1.27477 28.7256L2.2979 23.6099C2.2979 23.6099 2.2979 23.6099 2.2979 23.6099C2.38898 23.1546 2.6128 22.7364 2.94116 22.4081L2.23409 21.7009L2.94122 22.408L23.4419 1.90565C24.0625 1.31549 24.8888 0.990423 25.7454 0.999785C26.6055 1.00918 27.4276 1.35495 28.0359 1.96304C28.6442 2.57113 28.9902 3.3932 28.9998 4.25324C29.0094 5.1098 28.6846 5.9362 28.0947 6.55692L7.59071 27.0592Z" stroke="#48B705" stroke-width="2" stroke-linecap="round" stroke-linejoin="round"/>
</svg>
