<svg width="30" height="30" viewBox="0 0 30 30" fill="none" xmlns="http://www.w3.org/2000/svg">
<mask id="path-1-inside-1_421_3079" fill="white">
<path d="M2.23409 21.7009L22.7431 1.19026C23.5533 0.414894 24.635 -0.0124108 25.7564 -0.000155472C26.8778 0.0120999 27.9498 0.462942 28.7429 1.25583C29.536 2.04872 29.9872 3.12063 29.9997 4.24203C30.0123 5.36343 29.5853 6.44518 28.8101 7.25564L8.29779 27.7663C7.82986 28.2343 7.23387 28.5533 6.58494 28.6831L0 30.0004L1.31732 23.4138C1.44712 22.7649 1.76611 22.1689 2.23409 21.7009V21.7009Z"/>
</mask>
<path d="M2.23409 21.7009L22.7431 1.19026C23.5533 0.414894 24.635 -0.0124108 25.7564 -0.000155472C26.8778 0.0120999 27.9498 0.462942 28.7429 1.25583C29.536 2.04872 29.9872 3.12063 29.9997 4.24203C30.0123 5.36343 29.5853 6.44518 28.8101 7.25564L8.29779 27.7663C7.82986 28.2343 7.23387 28.5533 6.58494 28.6831L0 30.0004L1.31732 23.4138C1.44712 22.7649 1.76611 22.1689 2.23409 21.7009V21.7009Z" stroke="#48B705" stroke-width="4" stroke-linecap="round" stroke-linejoin="round" mask="url(#path-1-inside-1_421_3079)"/>
<path d="M19.2734 5.69859L24.3014 10.7265" stroke="#48B705" stroke-width="2"/>
</svg>
