<svg width="27" height="32" viewBox="0 0 27 32" fill="none" xmlns="http://www.w3.org/2000/svg">
<path d="M25.0202 14.4817C24.3258 12.9189 23.3164 11.5162 22.0551 10.3614L21.0144 9.40648C20.979 9.37494 20.9365 9.35256 20.8905 9.3413C20.8445 9.33004 20.7964 9.33025 20.7505 9.3419C20.7046 9.35356 20.6623 9.3763 20.6272 9.40814C20.5921 9.43997 20.5654 9.47993 20.5494 9.5245L20.0844 10.8586C19.7947 11.6955 19.2618 12.5503 18.5071 13.3908C18.4571 13.4445 18.3998 13.4588 18.3605 13.4624C18.3212 13.4659 18.2604 13.4588 18.2067 13.4087C18.1566 13.3658 18.1316 13.3014 18.1352 13.237C18.2675 11.0839 17.6237 8.65538 16.2145 6.01226C15.0485 3.81621 13.4283 2.10301 11.404 0.90842L9.92682 0.0393005C9.73368 -0.0751515 9.4869 0.0750665 9.49763 0.300394L9.57631 2.01717C9.62996 3.1903 9.49405 4.22753 9.17215 5.08949C8.77873 6.1446 8.21362 7.12459 7.49114 8.00444C6.98835 8.61591 6.41848 9.16898 5.79225 9.65326C4.284 10.8127 3.05761 12.2983 2.20489 13.9989C1.35428 15.7143 0.911194 17.6029 0.910156 19.5176C0.910156 21.2058 1.24278 22.8403 1.90088 24.3818C2.53633 25.866 3.45334 27.213 4.60123 28.3483C5.76006 29.4928 7.10487 30.3941 8.60347 31.02C10.1557 31.6709 11.801 32 13.4999 32C15.1988 32 16.844 31.6709 18.3963 31.0236C19.8912 30.4013 21.2506 29.4939 22.3985 28.3518C23.5573 27.2073 24.4658 25.8697 25.0989 24.3854C25.756 22.8481 26.0931 21.193 26.0896 19.5212C26.0896 17.7758 25.7319 16.0805 25.0202 14.4817ZM20.6889 26.6172C18.7682 28.5199 16.2181 29.5643 13.4999 29.5643C10.7816 29.5643 8.2315 28.5199 6.31086 26.6172C4.39736 24.718 3.34226 22.2001 3.34226 19.5212C3.34226 17.9653 3.69277 16.4739 4.38306 15.0862C5.05546 13.7306 6.05692 12.5181 7.27297 11.5846C8.04852 10.9916 8.75194 10.3098 9.36887 9.55312C10.263 8.46225 10.964 7.24619 11.4505 5.94073C11.65 5.40222 11.795 4.84506 11.8832 4.2776C12.7452 5.07161 13.4677 6.03014 14.0721 7.1532C15.2667 9.39217 15.8175 11.3843 15.7102 13.0797C15.6846 13.4789 15.7498 13.8788 15.901 14.2493C16.0521 14.6197 16.2853 14.9511 16.5829 15.2185C16.8409 15.4515 17.1425 15.6309 17.4704 15.7463C17.7983 15.8618 18.1458 15.9109 18.4928 15.8909C19.1974 15.8551 19.8448 15.544 20.3169 15.0182C20.7926 14.4853 21.2039 13.9416 21.5473 13.3873C22.048 14.0275 22.4665 14.7249 22.7991 15.476C23.3678 16.7564 23.6575 18.1191 23.6575 19.5212C23.6575 22.2001 22.6024 24.7216 20.6889 26.6172Z" fill="black"/>
</svg>
