<svg width="35" height="32" viewBox="0 0 35 32" fill="none" xmlns="http://www.w3.org/2000/svg">
<path d="M6.11115 30.6134C5.94475 31.5606 6.87914 32.3008 7.70259 31.8784L17.0678 27.066L26.4308 31.8784C27.2542 32.3008 28.1886 31.5606 28.0222 30.6156L26.2516 20.5257L33.765 13.3668C34.469 12.6969 34.1064 11.4725 33.1635 11.3402L22.7146 9.85556L18.0555 0.625326C17.9667 0.438223 17.8267 0.280143 17.6517 0.169451C17.4766 0.0587592 17.2738 0 17.0667 0C16.8596 0 16.6567 0.0587592 16.4817 0.169451C16.3067 0.280143 16.1667 0.438223 16.0779 0.625326L11.4188 9.85769L0.96991 11.3424C0.0291268 11.4746 -0.335667 12.6991 0.366187 13.3689L7.88178 20.5278L6.11115 30.6177V30.6134ZM16.575 24.711L8.71164 28.7512L10.1921 20.3102C10.2268 20.1159 10.2133 19.9161 10.1526 19.7282C10.092 19.5404 9.98616 19.3703 9.84442 19.233L3.64506 13.3241L12.2892 12.0954C12.4682 12.0684 12.6379 11.9983 12.784 11.8914C12.93 11.7844 13.0479 11.6436 13.1276 11.481L17.0635 3.67789L21.0037 11.481C21.0834 11.6436 21.2013 11.7844 21.3473 11.8914C21.4933 11.9983 21.6631 12.0684 21.8421 12.0954L30.4862 13.322L24.2868 19.2308C24.1447 19.3684 24.0387 19.5388 23.9781 19.7271C23.9174 19.9153 23.904 20.1156 23.9391 20.3102L25.4196 28.7512L17.5563 24.711C17.4042 24.6326 17.2356 24.5917 17.0646 24.5917C16.8935 24.5917 16.7249 24.6326 16.5728 24.711H16.575Z" fill="black"/>
</svg>
