<svg width="34" height="32" viewBox="0 0 34 32" fill="none" xmlns="http://www.w3.org/2000/svg">
<path d="M21.9326 10.0294L22.0489 10.2652L22.3091 10.303L32.3531 11.7627C32.3533 11.7627 32.3535 11.7627 32.3536 11.7628C32.7774 11.826 33.0643 12.2157 33.0007 12.6281L33.0006 12.6281L32.9999 12.6336C32.9761 12.7997 32.8978 12.9528 32.7769 13.0713L25.5097 20.1564L25.3215 20.3399L25.366 20.599L27.0831 30.605L27.0832 30.6054C27.1547 31.0204 26.8758 31.4156 26.4583 31.4876L26.4576 31.4878C26.2918 31.5166 26.1201 31.4896 25.975 31.4124L25.9728 31.4112L16.9876 26.6871L16.7549 26.5648L16.5222 26.6871L7.53702 31.4112L7.53625 31.4116C7.40998 31.4783 7.26756 31.5082 7.12514 31.4981C6.98272 31.4879 6.84599 31.4381 6.73046 31.3541C6.61493 31.2702 6.52522 31.1556 6.47151 31.0233C6.4178 30.891 6.40223 30.7463 6.42657 30.6056L6.42668 30.605L8.1438 20.599L8.18826 20.3399L8.00005 20.1564L0.731969 13.0704L0.731938 13.0703C0.586162 12.9282 0.502764 12.7341 0.500068 12.5305C0.497375 12.3272 0.575368 12.1312 0.716932 11.9854C0.835271 11.8649 0.98818 11.7868 1.15394 11.7631L1.15514 11.7629L11.2007 10.303L11.4609 10.2652L11.5772 10.0294L16.0666 0.927877C16.0668 0.927526 16.067 0.927175 16.0671 0.926824C16.2577 0.547051 16.7189 0.393038 17.0954 0.578922L17.096 0.579208C17.2462 0.653132 17.3679 0.774791 17.4418 0.925026L17.442 0.925458L21.9326 10.0294Z" fill="#DECF43" stroke="black"/>
</svg>
