<svg width="35" height="32" viewBox="0 0 35 32" fill="none" xmlns="http://www.w3.org/2000/svg">
<path d="M6.31134 30.6134C6.14495 31.5606 7.07933 32.3008 7.90278 31.8784L17.2679 27.066L26.631 31.8784C27.4544 32.3008 28.3888 31.5606 28.2224 30.6156L26.4518 20.5257L33.9652 13.3668C34.6692 12.6969 34.3066 11.4725 33.3637 11.3402L22.9148 9.85556L18.2557 0.625326C18.1669 0.438223 18.0269 0.280143 17.8519 0.169451C17.6768 0.0587592 17.474 0 17.2669 0C17.0598 0 16.8569 0.0587592 16.6819 0.169451C16.5069 0.280143 16.3669 0.438223 16.2781 0.625326L11.619 9.85769L1.17011 11.3424C0.229322 11.4746 -0.135471 12.6991 0.566383 13.3689L8.08198 20.5278L6.31134 30.6177V30.6134ZM16.7752 24.711L8.91183 28.7512L10.3923 20.3102C10.427 20.1159 10.4135 19.9161 10.3528 19.7282C10.2922 19.5404 10.1864 19.3703 10.0446 19.233L3.84526 13.3241L12.4894 12.0954C12.6684 12.0684 12.8381 11.9983 12.9841 11.8914C13.1302 11.7844 13.2481 11.6436 13.3278 11.481L17.2637 3.67789L21.2039 11.481C21.2836 11.6436 21.4015 11.7844 21.5475 11.8914C21.6935 11.9983 21.8633 12.0684 22.0423 12.0954L30.6864 13.322L24.487 19.2308C24.3449 19.3684 24.2389 19.5388 24.1783 19.7271C24.1176 19.9153 24.1042 20.1156 24.1393 20.3102L25.6198 28.7512L17.7565 24.711C17.6044 24.6326 17.4358 24.5917 17.2647 24.5917C17.0937 24.5917 16.9251 24.6326 16.773 24.711H16.7752Z" fill="#E4E3E1"/>
</svg>
