<svg width="33" height="33" viewBox="0 0 33 33" fill="none" xmlns="http://www.w3.org/2000/svg">
<path d="M17.5358 2.03786C17.1931 2.01255 16.8495 1.99988 16.5059 1.99986V0C16.8989 0.000191642 17.2918 0.0148672 17.6838 0.0439969L17.5358 2.03786ZM21.5435 2.93779C20.9024 2.69042 20.244 2.49056 19.5736 2.33984L20.0116 0.387973C20.7776 0.559961 21.5315 0.787945 22.2635 1.07192L21.5435 2.93779ZM24.2833 4.35769C23.9974 4.16701 23.7045 3.9869 23.4054 3.81773L24.3913 2.07785C25.0751 2.4653 25.7295 2.90244 26.3492 3.38576L25.1193 4.96365C24.8481 4.75213 24.5693 4.55067 24.2833 4.35969V4.35769ZM27.9511 7.93744C27.5555 7.37543 27.119 6.84336 26.6451 6.34555L28.093 4.96565C28.633 5.53561 29.133 6.14557 29.5869 6.78552L27.9511 7.93744ZM29.439 10.6413C29.3077 10.3242 29.1649 10.012 29.011 9.70532L30.7969 8.80538C31.15 9.5075 31.4508 10.2348 31.6968 10.9812L29.7969 11.6072C29.6895 11.2809 29.57 10.9587 29.439 10.6413ZM30.4989 15.6549C30.4827 14.9676 30.4159 14.2825 30.2989 13.605L32.2688 13.2651C32.4027 14.037 32.4807 14.821 32.5007 15.6049L30.5009 15.6549H30.4989ZM30.2369 18.7307C30.3029 18.3907 30.3569 18.0527 30.3989 17.7108L32.3847 17.9567C32.2887 18.737 32.1349 19.5091 31.9248 20.2666L29.9969 19.7326C30.0889 19.4026 30.1689 19.0687 30.2369 18.7307ZM28.333 23.4884C28.701 22.9084 29.025 22.3004 29.305 21.6725L31.1328 22.4824C30.8129 23.2024 30.4429 23.8943 30.0229 24.5583L28.333 23.4884ZM26.4052 25.8982C26.6491 25.6542 26.8831 25.4022 27.1051 25.1422L28.621 26.4481C28.3643 26.7458 28.0968 27.034 27.8191 27.3121L26.4052 25.8982Z" fill="#E4E3E1"/>
<path d="M16.5041 1.99986C14.2021 2.00003 11.9356 2.56791 9.90537 3.65322C7.87518 4.73853 6.14397 6.30776 4.86508 8.22192C3.58619 10.1361 2.7991 12.3361 2.57351 14.6271C2.34793 16.9181 2.69082 19.2294 3.57181 21.3562C4.4528 23.483 5.8447 25.3598 7.62422 26.8202C9.40375 28.2807 11.516 29.2797 13.7738 29.7289C16.0316 30.178 18.3654 30.0634 20.5684 29.3952C22.7714 28.7271 24.7756 27.5259 26.4035 25.8982L27.8174 27.3121C25.957 29.1735 23.6661 30.5473 21.1479 31.3118C18.6297 32.0763 15.9617 32.2078 13.3805 31.6947C10.7993 31.1817 8.38443 30.0399 6.34996 28.3705C4.31548 26.7011 2.72419 24.5556 1.71705 22.1242C0.709923 19.6928 0.318056 17.0506 0.576174 14.4315C0.834291 11.8125 1.73442 9.29755 3.19682 7.10954C4.65921 4.92153 6.63871 3.128 8.95993 1.88787C11.2812 0.647745 13.8724 -0.000697415 16.5041 5.62877e-07V1.99986Z" fill="#E4E3E1"/>
<path d="M15.5058 5.99957C15.771 5.99957 16.0253 6.10492 16.2128 6.29245C16.4004 6.47997 16.5057 6.7343 16.5057 6.9995V17.4188L23.0013 21.1305C23.2248 21.2654 23.3868 21.4823 23.4525 21.735C23.5182 21.9877 23.4825 22.2561 23.3529 22.4828C23.2234 22.7095 23.0103 22.8766 22.7592 22.9482C22.5082 23.0199 22.239 22.9905 22.0093 22.8664L15.0098 18.8667C14.8568 18.7792 14.7296 18.6529 14.6411 18.5005C14.5526 18.3481 14.5059 18.175 14.5059 17.9987V6.9995C14.5059 6.7343 14.6112 6.47997 14.7987 6.29245C14.9863 6.10492 15.2406 5.99957 15.5058 5.99957Z" fill="#E4E3E1"/>
</svg>
