<svg width="50" height="50" viewBox="0 0 50 50" fill="none" xmlns="http://www.w3.org/2000/svg">
<path d="M35.5769 23.0769C35.5769 25.1688 34.9566 27.2138 33.7944 28.9531C32.6322 30.6925 30.9803 32.0482 29.0476 32.8487C27.1149 33.6493 24.9883 33.8587 22.9366 33.4506C20.8848 33.0425 19.0002 32.0351 17.521 30.5559C16.0418 29.0767 15.0344 27.1921 14.6263 25.1404C14.2182 23.0887 14.4277 20.962 15.2282 19.0293C16.0287 17.0966 17.3844 15.4447 19.1238 14.2825C20.8631 13.1203 22.9081 12.5 25 12.5C27.8052 12.5 30.4955 13.6143 32.479 15.5979C34.4626 17.5815 35.5769 20.2717 35.5769 23.0769V23.0769ZM50 25C50 29.9445 48.5338 34.778 45.7867 38.8892C43.0397 43.0005 39.1352 46.2048 34.5671 48.097C29.9989 49.9892 24.9723 50.4843 20.1227 49.5196C15.2732 48.555 10.8187 46.174 7.32234 42.6777C3.82603 39.1813 1.44501 34.7268 0.480379 29.8773C-0.484251 25.0277 0.0108321 20.0011 1.90302 15.4329C3.79521 10.8648 6.99952 6.96029 11.1108 4.21326C15.222 1.46622 20.0555 0 25 0C31.6265 0.0127067 37.978 2.65071 42.6636 7.33636C47.3493 12.022 49.9873 18.3735 50 25V25ZM46.1538 25C46.1551 21.5739 45.3242 18.1987 43.7325 15.1648C42.1409 12.1308 39.8361 9.52889 37.0164 7.58269C34.1968 5.63649 30.9466 4.40428 27.5454 3.99203C24.1442 3.57978 20.6937 3.99982 17.4907 5.21604C14.2878 6.43225 11.4281 8.40824 9.15773 10.9741C6.88733 13.5399 5.27413 16.6188 4.45685 19.946C3.63957 23.2732 3.64266 26.7491 4.46586 30.0749C5.28907 33.4006 6.90775 36.4767 9.1827 39.0385C10.7394 36.8055 12.7454 34.9223 15.0721 33.5096C17.7436 36.069 21.3004 37.4978 25 37.4978C28.6997 37.4978 32.2564 36.069 34.9279 33.5096C37.2546 34.9223 39.2606 36.8055 40.8173 39.0385C44.2611 35.1739 46.1609 30.1763 46.1538 25V25Z" fill="#DE8443"/>
</svg>
