<svg width="587" height="124" viewBox="0 0 587 124" fill="none" xmlns="http://www.w3.org/2000/svg">
<path d="M18.444 113.592C16.2253 113.592 14.3053 112.312 12.684 109.752C11.0627 107.277 9.91067 103.224 9.228 97.592C9.14267 97.1653 9.1 96.6533 9.1 96.056C9.1 95.3733 9.1 94.6907 9.1 94.008C9.1 91.192 9.27067 87.6507 9.612 83.384C9.95333 79.032 10.38 74.2533 10.892 69.048C11.404 63.8427 11.8733 58.5093 12.3 53.048C12.812 47.5013 13.2387 42.0827 13.58 36.792C13.9213 31.5013 14.092 26.68 14.092 22.328C14.092 16.952 13.7507 12.6 13.068 9.272C12.3853 5.944 11.148 4.28 9.356 4.28C8.24667 4.28 7.13733 4.92 6.028 6.2C5.004 7.39466 4.06533 8.76 3.212 10.296C2.444 11.7467 1.804 12.9413 1.292 13.88C0.865333 14.7333 0.609333 14.8613 0.524 14.264C0.438667 13.9227 0.353333 13.624 0.268 13.368C0.268 13.0267 0.268 12.6853 0.268 12.344C0.268 10.7227 0.652 9.016 1.42 7.224C2.188 5.432 3.25467 3.93866 4.62 2.744C5.98533 1.464 7.52133 0.823997 9.228 0.823997C9.56933 0.823997 9.868 0.866664 10.124 0.951996C10.38 0.951996 10.636 0.994662 10.892 1.07999C14.22 1.93333 16.4813 4.66399 17.676 9.272C18.8707 13.88 19.468 19.4693 19.468 26.04C19.468 30.9893 19.212 36.2373 18.7 41.784C18.2733 47.3307 17.7613 52.92 17.164 58.552C16.652 64.0987 16.14 69.3893 15.628 74.424C15.2013 79.4587 14.988 83.896 14.988 87.736C14.988 88.8453 14.988 89.912 14.988 90.936C15.0733 91.8747 15.1587 92.7707 15.244 93.624C15.9267 99 16.8653 102.755 18.06 104.888C19.2547 107.107 20.62 108.216 22.156 108.216C23.8627 108.216 25.612 107.277 27.404 105.4C29.2813 103.523 31.116 101.176 32.908 98.36C34.7 95.544 36.3213 92.728 37.772 89.912C39.7347 86.2427 41.5267 81.9333 43.148 76.984C44.7693 72.0347 46.22 67 47.5 61.88C48.8653 56.76 49.932 52.0667 50.7 47.8C49.8467 46.3493 49.3347 44.856 49.164 43.32C48.9933 41.784 48.908 39.8213 48.908 37.432C48.908 34.872 49.3773 32.8667 50.316 31.416C51.2547 29.9653 52.236 29.24 53.26 29.24C54.796 29.24 55.82 30.52 56.332 33.08C57.2707 37.3467 58.2093 41.8693 59.148 46.648C60.0867 51.3413 61.1107 55.9493 62.22 60.472C63.4147 64.9947 64.78 69.176 66.316 73.016C69.4733 80.6107 72.3747 86.072 75.02 89.4C77.6653 92.6427 80.0973 94.264 82.316 94.264C84.62 94.264 86.6253 92.8133 88.332 89.912C90.124 86.9253 91.6173 83.0427 92.812 78.264C94.0067 73.4 94.9027 68.152 95.5 62.52C96.0973 56.8027 96.396 51.2133 96.396 45.752C96.396 41.2293 96.1827 37.0053 95.756 33.08C95.4147 29.1547 94.7747 25.9547 93.836 23.48C93.4947 22.456 93.2387 21.3893 93.068 20.28C92.8973 19.1707 92.812 18.1467 92.812 17.208C92.812 16.0133 92.94 14.9893 93.196 14.136C93.5373 13.2827 94.0067 12.856 94.604 12.856C95.2867 12.856 95.9693 13.368 96.652 14.392C97.5907 15.5867 98.444 17.2507 99.212 19.384C100.065 21.432 100.791 23.224 101.388 24.76C102.071 26.4667 102.967 28.5573 104.076 31.032C105.185 33.4213 106.337 35.64 107.532 37.688C108.812 39.6507 110.049 40.8453 111.244 41.272C111.415 41.3573 111.5 41.528 111.5 41.784C111.5 42.296 111.116 42.7227 110.348 43.064C109.58 43.4053 109.025 43.5333 108.684 43.448C106.721 42.5093 105.057 41.528 103.692 40.504C102.412 39.3947 100.919 37.3893 99.212 34.488C99.2973 36.024 99.34 37.6027 99.34 39.224C99.34 40.76 99.34 42.296 99.34 43.832C99.34 48.2693 99.1693 52.7067 98.828 57.144C98.572 61.5813 98.0173 66.0613 97.164 70.584C95.2867 80.3973 92.8973 87.3947 89.996 91.576C87.18 95.7573 84.1933 97.848 81.036 97.848C78.476 97.848 75.916 96.7387 73.356 94.52C70.8813 92.216 68.5773 89.1867 66.444 85.432C64.3107 81.6773 62.476 77.496 60.94 72.888C59.5747 68.4507 58.4227 64.3973 57.484 60.728C56.5453 56.9733 55.82 53.688 55.308 50.872C53.9427 57.016 52.1507 63.1173 49.932 69.176C47.7987 75.2347 45.4093 80.952 42.764 86.328C40.1187 91.6187 37.3453 96.312 34.444 100.408C31.628 104.504 28.812 107.704 25.996 110.008C23.2653 112.397 20.748 113.592 18.444 113.592ZM137.828 107.448C132.452 107.448 127.417 106.339 122.724 104.12C118.031 101.901 114.233 98.3173 111.332 93.368C108.516 88.4187 107.108 81.8907 107.108 73.784C107.108 71.992 107.151 70.1573 107.236 68.28C107.407 66.3173 107.663 64.312 108.004 62.264C107.407 62.1787 106.809 62.1787 106.212 62.264C105.615 62.264 105.103 62.264 104.676 62.264C103.908 62.264 103.311 62.0933 102.884 61.752C102.457 61.4107 102.201 60.6853 102.116 59.576C102.116 58.3813 102.372 57.272 102.884 56.248C103.481 55.224 104.079 55.0533 104.676 55.736C105.615 56.504 107.321 56.9733 109.796 57.144C111.503 51.1707 114.063 45.6667 117.476 40.632C120.975 35.5973 124.943 31.0747 129.38 27.064C133.903 22.968 138.553 19.512 143.332 16.696C148.196 13.7947 152.847 11.6187 157.284 10.168C161.721 8.632 165.647 7.864 169.06 7.864C171.961 7.864 174.265 8.46133 175.972 9.656C177.764 10.8507 178.66 12.728 178.66 15.288C178.66 16.3973 178.489 17.5067 178.148 18.616C177.465 21.5173 176.356 23.8213 174.82 25.528C173.369 27.2347 172.303 28.088 171.62 28.088C171.193 28.088 170.98 27.8747 170.98 27.448C170.98 27.0213 171.321 26.1253 172.004 24.76C173.284 22.456 173.924 20.4507 173.924 18.744C173.924 16.6107 173.071 15.032 171.364 14.008C169.657 12.8987 167.396 12.344 164.58 12.344C160.996 12.344 156.857 13.24 152.164 15.032C147.471 16.824 142.692 19.5547 137.828 23.224C132.964 26.808 128.484 31.416 124.388 37.048C120.377 42.5947 117.263 49.208 115.044 56.888C116.665 56.7173 118.329 56.5467 120.036 56.376C121.743 56.12 123.279 55.8213 124.644 55.48C135.908 53.0053 144.399 51.256 150.116 50.232C155.919 49.1227 159.545 48.568 160.996 48.568C162.276 48.568 162.191 48.8667 160.74 49.464C159.289 50.0613 156.815 50.9147 153.316 52.024C149.903 53.048 145.721 54.2 140.772 55.48C135.823 56.6747 130.447 57.912 124.644 59.192C123.193 59.5333 121.487 59.96 119.524 60.472C117.647 60.984 115.727 61.4533 113.764 61.88C113.252 65.5493 112.996 69.0053 112.996 72.248C112.996 79.928 114.276 86.1573 116.836 90.936C119.396 95.6293 122.767 99.0427 126.948 101.176C131.129 103.395 135.652 104.504 140.516 104.504C145.465 104.504 150.372 103.523 155.236 101.56C160.185 99.5973 164.665 96.8667 168.676 93.368C172.687 89.784 175.716 85.6453 177.764 80.952C178.532 79.3307 179.215 78.52 179.812 78.52C180.239 78.52 180.452 78.8613 180.452 79.544C180.452 79.9707 180.324 80.568 180.068 81.336C178.788 85.0907 176.697 88.5893 173.796 91.832C170.895 94.9893 167.481 97.72 163.556 100.024C159.631 102.413 155.449 104.248 151.012 105.528C146.575 106.808 142.18 107.448 137.828 107.448ZM169.184 113.976C168.245 113.976 167.477 113.677 166.88 113.08C166.197 112.568 165.856 111.843 165.856 110.904C165.856 109.709 166.453 108.301 167.648 106.68C168.757 105.059 170.635 103.267 173.28 101.304C173.707 100.195 174.005 99.1707 174.176 98.232C174.432 97.2933 174.645 96.2693 174.816 95.16C175.413 91.4053 176.48 87.608 178.016 83.768C179.552 79.8427 181.088 76.1733 182.624 72.76C181.003 72.4187 179.381 71.1387 177.76 68.92C176.224 66.7013 175.456 64.3547 175.456 61.88C175.456 61.2827 175.584 60.3013 175.84 58.936C176.096 57.4853 176.523 56.76 177.12 56.76C177.888 56.76 178.272 57.4 178.272 58.68C178.272 59.96 178.272 60.856 178.272 61.368C178.272 63.16 178.784 64.952 179.808 66.744C180.832 68.536 182.069 69.816 183.52 70.584C184.971 67.4267 186.805 63.7147 189.024 59.448C191.243 55.096 193.76 50.5307 196.576 45.752C199.392 40.888 202.464 36.152 205.792 31.544C209.12 26.936 212.619 22.7547 216.288 19C220.043 15.2453 223.925 12.2587 227.936 10.04C231.947 7.82133 236.043 6.712 240.224 6.712C243.637 6.712 246.112 7.608 247.648 9.39999C249.184 11.1067 249.952 13.4533 249.952 16.44C249.952 19.5973 249.184 23.224 247.648 27.32C246.112 31.416 243.936 35.6827 241.12 40.12C238.389 44.472 235.189 48.7387 231.52 52.92C227.851 57.016 223.84 60.7707 219.488 64.184C215.136 67.512 210.613 70.1573 205.92 72.12C201.227 74.0827 196.533 75.064 191.84 75.064C190.901 75.064 189.963 75.0213 189.024 74.936C188.085 74.7653 187.189 74.5093 186.336 74.168C184.629 78.1787 183.051 82.1893 181.6 86.2C180.149 90.2107 178.997 94.392 178.144 98.744C184.715 94.7333 191.84 91.832 199.52 90.04C207.2 88.248 214.88 87.352 222.56 87.352C224.608 87.352 226.955 87.736 229.6 88.504C232.245 89.1867 234.507 90.296 236.384 91.832C238.347 93.368 239.328 95.4587 239.328 98.104C239.328 100.237 239.115 101.304 238.688 101.304C238.261 101.304 237.749 100.536 237.152 99C235.957 95.928 234.08 94.008 231.52 93.24C228.96 92.3867 226.144 91.96 223.072 91.96C217.867 91.96 213.387 92.216 209.632 92.728C205.963 93.1547 202.549 93.8373 199.392 94.776C196.32 95.7147 193.12 96.8667 189.792 98.232C186.464 99.5973 182.539 101.176 178.016 102.968C177.333 106.893 176.053 109.709 174.176 111.416C172.384 113.123 170.72 113.976 169.184 113.976ZM191.2 72.76C195.723 72.76 200.203 71.7787 204.64 69.816C209.163 67.768 213.472 65.08 217.568 61.752C221.749 58.3387 225.589 54.584 229.088 50.488C232.587 46.392 235.616 42.2533 238.176 38.072C240.821 33.8053 242.869 29.7947 244.32 26.04C245.771 22.2 246.496 18.9573 246.496 16.312C246.496 14.3493 246.027 12.8133 245.088 11.704C244.235 10.5947 242.869 10.04 240.992 10.04C237.835 10.04 234.507 11.1493 231.008 13.368C227.595 15.5867 224.096 18.5733 220.512 22.328C216.928 26.0827 213.429 30.2213 210.016 34.744C206.688 39.2667 203.531 43.8747 200.544 48.568C197.643 53.176 195.04 57.5707 192.736 61.752C190.432 65.848 188.64 69.304 187.36 72.12C187.787 72.376 188.427 72.5467 189.28 72.632C190.133 72.7173 190.773 72.76 191.2 72.76ZM279.588 113.592C273.017 113.592 267.172 111.928 262.052 108.6C256.932 105.357 252.58 101.005 248.996 95.544C245.497 90.0827 242.809 84.024 240.932 77.368C239.14 70.6267 238.244 63.8427 238.244 57.016C238.244 51.0427 238.969 45.2827 240.42 39.736C241.871 34.1893 244.132 29.24 247.204 24.888C250.276 20.4507 254.116 16.952 258.724 14.392C263.417 11.832 268.964 10.552 275.364 10.552C281.508 10.552 286.5 11.6613 290.34 13.88C294.265 16.0987 297.167 18.9573 299.044 22.456C300.921 25.9547 301.86 29.624 301.86 33.464C301.86 37.304 300.964 41.0587 299.172 44.728C297.38 48.312 294.777 51.2987 291.364 53.688C288.036 55.992 283.94 57.2293 279.076 57.4C278.308 57.4 277.924 57.2293 277.924 56.888C277.924 56.2053 278.735 55.7787 280.356 55.608C283.855 55.5227 286.841 54.4987 289.316 52.536C291.791 50.488 293.668 47.928 294.948 44.856C296.228 41.6987 296.868 38.4133 296.868 35C296.868 31.3307 296.057 27.7893 294.436 24.376C292.9 20.9627 290.468 18.1467 287.14 15.928C283.812 13.7093 279.545 12.6 274.34 12.6C269.135 12.6 264.655 13.752 260.9 16.056C257.145 18.36 254.031 21.5173 251.556 25.528C249.167 29.4533 247.375 33.9333 246.18 38.968C244.985 44.0027 244.388 49.2933 244.388 54.84C244.388 61.5813 245.199 68.28 246.82 74.936C248.527 81.592 250.959 87.6933 254.116 93.24C257.273 98.7013 261.113 103.053 265.636 106.296C270.159 109.624 275.321 111.288 281.124 111.288C285.049 111.288 288.676 110.392 292.004 108.6C295.332 106.893 298.02 104.248 300.068 100.664C302.201 97.1653 303.268 92.7707 303.268 87.48C303.268 85.6027 303.14 83.64 302.884 81.592C302.628 79.544 302.159 77.368 301.476 75.064C301.391 74.808 301.348 74.5093 301.348 74.168C301.348 73.5707 301.519 73.272 301.86 73.272C302.287 73.272 302.671 73.6987 303.012 74.552C304.633 79.416 305.444 83.9813 305.444 88.248C305.444 93.2827 304.377 97.6773 302.244 101.432C300.111 105.272 297.124 108.259 293.284 110.392C289.444 112.525 284.879 113.592 279.588 113.592ZM341.688 119.736C333.667 119.736 327.693 116.621 323.768 110.392C319.928 104.163 318.179 95.8853 318.52 85.56C315.533 85.9013 313.059 84.8773 311.096 82.488C309.219 80.0987 308.28 76.728 308.28 72.376C308.28 68.024 309.389 62.904 311.608 57.016C313.912 51.128 317.752 44.8133 323.128 38.072C325.944 34.5733 328.675 31.416 331.32 28.6C333.965 25.6987 336.568 23.0533 339.128 20.664C342.029 15.8853 345.016 11.7467 348.088 8.24799C351.16 4.74933 353.72 2.74399 355.768 2.23199C356.195 2.14666 356.536 2.104 356.792 2.104C357.048 2.01866 357.261 1.976 357.432 1.976C358.2 1.976 358.584 2.18933 358.584 2.616C358.584 2.95733 358.371 3.34133 357.944 3.768C357.603 4.10933 357.219 4.36533 356.792 4.536C356.195 4.70666 355.341 5.38933 354.232 6.58399C353.123 7.77866 352.056 9.016 351.032 10.296C350.008 11.576 349.24 12.5147 348.728 13.112C352.568 10.3813 356.323 8.41867 359.992 7.224C363.747 6.02933 367.331 5.432 370.744 5.432C375.864 5.432 380.6 6.54133 384.952 8.75999C389.389 10.9787 393.229 13.88 396.472 17.464C399.715 21.048 402.275 24.9733 404.152 29.24C406.029 33.4213 407.011 37.56 407.096 41.656C407.352 49.336 406.328 56.8027 404.024 64.056C401.805 71.224 398.776 77.9227 394.936 84.152C391.096 90.296 386.787 95.7147 382.008 100.408C377.315 105.101 372.579 108.771 367.8 111.416C357.731 116.963 349.027 119.736 341.688 119.736ZM346.296 115.64C349.112 115.64 352.227 115.085 355.64 113.976C359.139 112.952 362.936 111.331 367.032 109.112C372.067 106.381 376.717 102.627 380.984 97.848C385.251 92.984 388.963 87.5653 392.12 81.592C395.277 75.6187 397.667 69.5173 399.288 63.288C400.909 56.9733 401.592 51 401.336 45.368C400.909 37.5173 399.245 30.904 396.344 25.528C393.443 20.152 389.645 16.056 384.952 13.24C380.344 10.424 375.267 9.016 369.72 9.016C365.197 9.016 360.504 9.99733 355.64 11.96C350.861 13.9227 346.168 16.9947 341.56 21.176C336.355 28.344 332.131 36.92 328.888 46.904C325.731 56.888 323.981 67.7253 323.64 79.416C323.896 79.5013 324.152 79.544 324.408 79.544C324.749 79.544 325.091 79.544 325.432 79.544H326.84C328.12 79.544 328.589 79.7147 328.248 80.056C326.712 81.336 325.261 82.2747 323.896 82.872C324.067 88.6747 324.92 94.0507 326.456 99C327.992 104.035 330.381 108.045 333.624 111.032C336.867 114.104 341.091 115.64 346.296 115.64ZM318.52 81.08C319.459 71.9493 321.293 62.9467 324.024 54.072C326.84 45.112 330.083 36.792 333.752 29.112C332.301 30.8187 330.808 32.6533 329.272 34.616C327.821 36.4933 326.371 38.456 324.92 40.504C322.787 43.4907 320.696 46.648 318.648 49.976C316.685 53.304 315.064 56.632 313.784 59.96C312.504 63.288 311.864 66.488 311.864 69.56C311.864 72.12 312.419 74.4667 313.528 76.6C314.125 77.7093 314.851 78.648 315.704 79.416C316.643 80.0987 317.581 80.6533 318.52 81.08ZM496.252 123.448C493.863 123.448 491.857 122.424 490.236 120.376C488.615 118.413 487.42 115.981 486.652 113.08C485.884 110.179 485.5 107.405 485.5 104.76C485.5 99.64 486.225 93.9653 487.676 87.736C489.127 81.5067 490.919 75.1493 493.052 68.664C495.271 62.1787 497.532 55.9493 499.836 49.976C502.225 43.9173 504.359 38.456 506.236 33.592C508.113 28.728 509.436 24.8453 510.204 21.944C510.375 21.176 510.503 20.4933 510.588 19.896C510.673 19.2133 510.716 18.6587 510.716 18.232C510.716 16.696 510.247 15.928 509.308 15.928C507.943 15.928 505.895 17.336 503.164 20.152C500.433 22.8827 497.361 26.6373 493.948 31.416C490.62 36.1093 487.292 41.4427 483.964 47.416C480.636 53.3893 477.649 59.576 475.004 65.976C472.444 72.2907 470.652 78.4773 469.628 84.536C469.287 86.7547 468.689 88.4187 467.836 89.528C467.068 90.6373 466.3 91.192 465.532 91.192C464.849 91.192 464.252 90.7653 463.74 89.912C463.228 89.0587 462.972 87.8213 462.972 86.2C462.887 79.3733 462.673 72.5467 462.332 65.72C461.991 58.808 461.223 52.1947 460.028 45.88C458.236 36.152 456.188 29.24 453.884 25.144C451.665 21.048 449.361 19 446.972 19C444.753 19 442.577 20.3653 440.444 23.096C438.396 25.7413 436.433 29.2827 434.556 33.72C432.679 38.072 431.015 42.8507 429.564 48.056C428.113 53.2613 426.961 58.424 426.108 63.544C425.34 68.664 424.956 73.2293 424.956 77.24C424.956 78.1787 424.956 79.1173 424.956 80.056C425.041 80.9093 425.127 81.72 425.212 82.488C425.297 82.9147 425.34 83.384 425.34 83.896C425.34 84.3227 425.34 84.7493 425.34 85.176C425.34 87.1387 425.084 88.888 424.572 90.424C424.06 91.96 423.463 92.728 422.78 92.728C422.097 92.728 421.457 91.96 420.86 90.424C420.177 88.888 419.623 86.968 419.196 84.664C418.769 82.2747 418.428 80.2693 418.172 78.648C418.001 77.4533 417.617 75.6613 417.02 73.272C416.508 70.8827 415.868 68.28 415.1 65.464C414.332 62.5627 413.436 59.7467 412.412 57.016C411.473 54.2 410.449 51.8107 409.34 49.848C408.231 47.8 407.079 46.4773 405.884 45.88C405.713 45.7093 405.628 45.5387 405.628 45.368C405.628 44.9413 406.055 44.6853 406.908 44.6C407.847 44.5147 408.487 44.5573 408.828 44.728C410.62 45.24 412.199 46.52 413.564 48.568C415.015 50.5307 416.252 52.8773 417.276 55.608C418.385 58.2533 419.324 60.8987 420.092 63.544C420.86 66.104 421.5 68.2373 422.012 69.944C422.951 64.056 424.06 58.2533 425.34 52.536C426.705 46.7333 428.497 41.0587 430.716 35.512C433.873 27.832 436.988 22.3707 440.06 19.128C443.132 15.8 446.033 14.136 448.764 14.136C451.665 14.136 454.268 15.6293 456.572 18.616C458.961 21.5173 460.967 25.4 462.588 30.264C464.295 35.0427 465.447 40.248 466.044 45.88C466.385 48.7813 466.599 51.9387 466.684 55.352C466.769 58.68 466.812 61.9653 466.812 65.208V75.192C466.812 76.6427 466.812 77.9653 466.812 79.16C466.812 80.3547 466.855 81.336 466.94 82.104C467.537 80.056 468.519 77.1973 469.884 73.528C471.249 69.7733 472.913 65.592 474.876 60.984C476.839 56.2907 479.057 51.4693 481.532 46.52C484.007 41.5707 486.652 36.8347 489.468 32.312C492.369 27.704 495.356 23.6933 498.428 20.28C501.585 16.7813 504.743 14.2213 507.9 12.6C509.777 11.6613 511.527 11.192 513.148 11.192C515.025 11.192 516.604 11.7467 517.884 12.856C519.164 13.88 519.804 15.416 519.804 17.464C519.804 20.536 519.164 23.608 517.884 26.68C516.604 29.6667 515.068 32.6107 513.276 35.512C511.484 38.4133 509.82 41.2293 508.284 43.96C505.553 48.9093 502.823 54.6267 500.092 61.112C497.361 67.5973 495.057 74.296 493.18 81.208C491.388 88.12 490.492 94.776 490.492 101.176C490.492 103.224 490.577 105.229 490.748 107.192C491.004 109.155 491.388 111.032 491.9 112.824C492.668 115.555 493.607 117.432 494.716 118.456C495.911 119.565 497.105 120.12 498.3 120.12C499.58 120.12 500.775 119.736 501.884 118.968C502.993 118.285 503.889 117.517 504.572 116.664C505.255 115.896 505.553 115.427 505.468 115.256C506.236 115 506.535 115.213 506.364 115.896C506.193 116.664 505.852 117.432 505.34 118.2C504.828 119.053 504.487 119.565 504.316 119.736C501.329 122.211 498.641 123.448 496.252 123.448ZM543.828 107.448C538.452 107.448 533.417 106.339 528.724 104.12C524.031 101.901 520.233 98.3173 517.332 93.368C514.516 88.4187 513.108 81.8907 513.108 73.784C513.108 71.992 513.151 70.1573 513.236 68.28C513.407 66.3173 513.663 64.312 514.004 62.264C513.407 62.1787 512.809 62.1787 512.212 62.264C511.615 62.264 511.103 62.264 510.676 62.264C509.908 62.264 509.311 62.0933 508.884 61.752C508.457 61.4107 508.201 60.6853 508.116 59.576C508.116 58.3813 508.372 57.272 508.884 56.248C509.481 55.224 510.079 55.0533 510.676 55.736C511.615 56.504 513.321 56.9733 515.796 57.144C517.503 51.1707 520.063 45.6667 523.476 40.632C526.975 35.5973 530.943 31.0747 535.38 27.064C539.903 22.968 544.553 19.512 549.332 16.696C554.196 13.7947 558.847 11.6187 563.284 10.168C567.721 8.632 571.647 7.864 575.06 7.864C577.961 7.864 580.265 8.46133 581.972 9.656C583.764 10.8507 584.66 12.728 584.66 15.288C584.66 16.3973 584.489 17.5067 584.148 18.616C583.465 21.5173 582.356 23.8213 580.82 25.528C579.369 27.2347 578.303 28.088 577.62 28.088C577.193 28.088 576.98 27.8747 576.98 27.448C576.98 27.0213 577.321 26.1253 578.004 24.76C579.284 22.456 579.924 20.4507 579.924 18.744C579.924 16.6107 579.071 15.032 577.364 14.008C575.657 12.8987 573.396 12.344 570.58 12.344C566.996 12.344 562.857 13.24 558.164 15.032C553.471 16.824 548.692 19.5547 543.828 23.224C538.964 26.808 534.484 31.416 530.388 37.048C526.377 42.5947 523.263 49.208 521.044 56.888C522.665 56.7173 524.329 56.5467 526.036 56.376C527.743 56.12 529.279 55.8213 530.644 55.48C541.908 53.0053 550.399 51.256 556.116 50.232C561.919 49.1227 565.545 48.568 566.996 48.568C568.276 48.568 568.191 48.8667 566.74 49.464C565.289 50.0613 562.815 50.9147 559.316 52.024C555.903 53.048 551.721 54.2 546.772 55.48C541.823 56.6747 536.447 57.912 530.644 59.192C529.193 59.5333 527.487 59.96 525.524 60.472C523.647 60.984 521.727 61.4533 519.764 61.88C519.252 65.5493 518.996 69.0053 518.996 72.248C518.996 79.928 520.276 86.1573 522.836 90.936C525.396 95.6293 528.767 99.0427 532.948 101.176C537.129 103.395 541.652 104.504 546.516 104.504C551.465 104.504 556.372 103.523 561.236 101.56C566.185 99.5973 570.665 96.8667 574.676 93.368C578.687 89.784 581.716 85.6453 583.764 80.952C584.532 79.3307 585.215 78.52 585.812 78.52C586.239 78.52 586.452 78.8613 586.452 79.544C586.452 79.9707 586.324 80.568 586.068 81.336C584.788 85.0907 582.697 88.5893 579.796 91.832C576.895 94.9893 573.481 97.72 569.556 100.024C565.631 102.413 561.449 104.248 557.012 105.528C552.575 106.808 548.18 107.448 543.828 107.448Z" fill="#FF9A61"/>
</svg>
